<svg width="385" height="354" viewBox="0 0 385 354" fill="none" xmlns="http://www.w3.org/2000/svg">
<g filter="url(#filter0_d_1_176)">
<g clip-path="url(#clip0_1_176)">
<rect x="0.909943" y="178.049" width="327" height="200" rx="16" transform="rotate(-32.9605 0.909943 178.049)" fill="url(#paint0_linear_1_176)"/>
<circle cx="185.928" cy="297.041" r="90.5" transform="rotate(-32.9605 185.928 297.041)" fill="white" fill-opacity="0.2"/>
<circle cx="185.928" cy="297.041" r="90" transform="rotate(-32.9605 185.928 297.041)" stroke="white" stroke-opacity="0.4"/>
<circle cx="237.955" cy="219.207" r="90.5" transform="rotate(-32.9605 237.955 219.207)" fill="white" fill-opacity="0.2"/>
<circle cx="237.955" cy="219.207" r="90" transform="rotate(-32.9605 237.955 219.207)" stroke="white" stroke-opacity="0.4"/>
<circle cx="327.881" cy="160.301" r="14" transform="rotate(-32.9605 327.881 160.301)" fill="#B10404"/>
<path fill-rule="evenodd" clip-rule="evenodd" d="M325.974 145.781C331.596 144.411 337.711 146.64 341.037 151.77C344.363 156.899 343.904 163.392 340.359 167.965C341.848 167.602 343.302 166.987 344.66 166.106C351.148 161.899 352.997 153.23 348.79 146.743C344.583 140.255 335.914 138.406 329.426 142.613C328.068 143.494 326.913 144.57 325.974 145.781Z" fill="#F89500"/>
<circle cx="262.731" cy="48.7993" r="15" transform="rotate(-32.9605 262.731 48.7993)" fill="white"/>
<path d="M39.5118 181.146C40.2368 180.676 40.9921 180.429 41.778 180.406C42.5705 180.378 43.3099 180.6 43.9963 181.07L42.8887 181.788C42.4393 181.536 41.968 181.427 41.475 181.461C40.9819 181.494 40.5038 181.661 40.0407 181.962C39.544 182.284 39.1682 182.689 38.9135 183.179C38.6611 183.657 38.5557 184.178 38.5973 184.742C38.6457 185.302 38.8461 185.854 39.1987 186.398C39.5512 186.941 39.9732 187.35 40.4645 187.622C40.9626 187.89 41.4836 188.01 42.0277 187.981C42.5784 187.949 43.1021 187.771 43.5988 187.449C44.062 187.149 44.4095 186.78 44.6414 186.344C44.8689 185.901 44.9593 185.423 44.9126 184.909L46.0202 184.191C46.1695 185.01 46.0699 185.775 45.7213 186.487C45.3795 187.195 44.8461 187.784 44.1211 188.254C43.47 188.677 42.7747 188.913 42.0351 188.963C41.2912 189.007 40.5874 188.863 39.9237 188.531C39.2557 188.191 38.7019 187.683 38.2623 187.005C37.8183 186.32 37.58 185.607 37.5473 184.866C37.5102 184.117 37.6656 183.416 38.0134 182.761C38.3613 182.107 38.8607 181.568 39.5118 181.146ZM46.6561 180.003C46.541 179.105 46.8795 178.4 47.6716 177.886L48.2918 178.842L48.0502 178.999C47.5803 179.304 47.3017 179.661 47.2144 180.07C47.1295 180.469 47.2828 180.97 47.6746 181.574L49.6332 184.594L48.7169 185.189L45.1327 179.661L46.0489 179.067L46.6561 180.003ZM55.4989 176.543C55.6251 176.738 55.7292 176.928 55.8112 177.113L51.4112 179.966C51.795 180.499 52.2491 180.824 52.7735 180.942C53.3002 181.049 53.812 180.941 54.3087 180.619C54.6846 180.375 54.9457 180.087 55.0919 179.753C55.2449 179.416 55.2926 179.07 55.2349 178.717L56.2216 178.077C56.3605 178.673 56.3174 179.269 56.0924 179.863C55.8741 180.452 55.4427 180.956 54.7983 181.374C54.2815 181.709 53.7422 181.892 53.1804 181.923C52.6253 181.949 52.0944 181.821 51.5876 181.539C51.0765 181.251 50.6381 180.825 50.2725 180.261C49.9025 179.691 49.6924 179.117 49.642 178.539C49.5873 177.955 49.6919 177.41 49.9557 176.905C50.2196 176.401 50.6233 175.972 51.167 175.619C51.6839 175.284 52.2143 175.102 52.7583 175.074C53.3023 175.045 53.8135 175.157 54.2918 175.41C54.7701 175.662 55.1725 176.04 55.4989 176.543ZM54.4641 177.043C54.2334 176.687 53.956 176.428 53.6318 176.267C53.3034 176.098 52.9592 176.031 52.5993 176.064C52.2461 176.092 51.9084 176.211 51.5862 176.42C51.1096 176.729 50.8125 177.146 50.6949 177.67C50.5729 178.188 50.6714 178.73 50.9904 179.295L54.4641 177.043ZM57.2115 171.7C57.6813 171.395 58.1626 171.241 58.6553 171.236C59.1547 171.227 59.6103 171.341 60.0222 171.579L58.0571 168.549L58.9834 167.948L63.8147 175.399L62.8883 175.999L62.1571 174.872C62.2109 175.352 62.1339 175.821 61.9262 176.28C61.7208 176.728 61.3831 177.104 60.9133 177.409C60.4165 177.731 59.8885 177.902 59.329 177.921C58.772 177.93 58.2345 177.792 57.7167 177.508C57.2012 177.213 56.7628 176.787 56.4016 176.23C56.0403 175.673 55.8367 175.109 55.7907 174.538C55.7471 173.956 55.8471 173.419 56.0908 172.927C56.3412 172.431 56.7148 172.022 57.2115 171.7ZM57.8883 172.391C57.5594 172.604 57.3029 172.885 57.1187 173.233C56.9413 173.577 56.8654 173.96 56.8911 174.382C56.9191 174.793 57.0681 175.206 57.3379 175.623C57.6078 176.039 57.9311 176.353 58.3078 176.567C58.6869 176.769 59.074 176.866 59.4691 176.858C59.8709 176.845 60.2362 176.732 60.5651 176.519C60.9007 176.301 61.1551 176.017 61.3282 175.667C61.508 175.312 61.5817 174.925 61.5493 174.508C61.5193 174.079 61.3693 173.657 61.0995 173.241C60.8296 172.824 60.5073 172.519 60.1326 172.323C59.7602 172.116 59.3753 172.023 58.9779 172.042C58.5871 172.057 58.224 172.173 57.8883 172.391ZM60.6095 167.48C60.4964 167.305 60.461 167.119 60.5035 166.919C60.546 166.72 60.6511 166.566 60.8189 166.458C60.9935 166.344 61.1803 166.309 61.3795 166.351C61.5786 166.394 61.7348 166.502 61.848 166.677C61.9611 166.851 61.9965 167.038 61.954 167.238C61.9115 167.437 61.803 167.593 61.6285 167.706C61.454 167.819 61.2671 167.855 61.068 167.812C60.8755 167.765 60.7227 167.655 60.6095 167.48ZM62.6561 168.298L66.2404 173.826L65.3241 174.42L61.7399 168.892L62.6561 168.298ZM69.8371 170.435L70.3203 171.18L69.394 171.781C68.9241 172.086 68.491 172.204 68.0947 172.137C67.705 172.066 67.3513 171.785 67.0336 171.295L64.853 167.932L64.1381 168.396L63.655 167.651L64.3699 167.187L63.482 165.818L64.4083 165.217L65.2962 166.586L66.7259 165.659L67.2091 166.404L65.7793 167.331L67.9599 170.694C68.121 170.943 68.2845 171.085 68.4504 171.12C68.6164 171.155 68.8269 171.09 69.082 170.925L69.8371 170.435ZM72.9721 159.449C73.697 158.979 74.4524 158.733 75.2382 158.709C76.0307 158.682 76.7701 158.903 77.4565 159.373L76.3489 160.092C75.8995 159.84 75.4282 159.73 74.9352 159.764C74.4421 159.798 73.964 159.965 73.5009 160.265C73.0042 160.587 72.6284 160.993 72.3737 161.482C72.1213 161.961 72.0159 162.482 72.0575 163.046C72.1059 163.606 72.3063 164.157 72.6589 164.701C73.0114 165.245 73.4334 165.653 73.9248 165.926C74.4228 166.194 74.9439 166.313 75.4879 166.285C76.0386 166.252 76.5623 166.074 77.059 165.752C77.5222 165.452 77.8697 165.084 78.1016 164.647C78.3292 164.204 78.4196 163.726 78.3728 163.213L79.4804 162.495C79.6297 163.313 79.5301 164.079 79.1815 164.791C78.8397 165.499 78.3063 166.088 77.5813 166.558C76.9302 166.98 76.2349 167.216 75.4954 167.267C74.7514 167.311 74.0476 167.166 73.384 166.834C72.7159 166.495 72.1621 165.986 71.7225 165.308C71.2786 164.624 71.0402 163.911 71.0075 163.169C70.9704 162.421 71.1258 161.719 71.4737 161.065C71.8215 160.41 72.321 159.872 72.9721 159.449ZM80.8096 156.398C81.2795 156.094 81.7608 155.939 82.2534 155.934C82.7528 155.925 83.2085 156.039 83.6204 156.278L82.9022 155.17L83.8285 154.569L87.4128 160.097L86.4865 160.698L85.7553 159.57C85.8091 160.05 85.7321 160.519 85.5243 160.978C85.3189 161.426 84.9813 161.802 84.5114 162.107C84.0147 162.429 83.4866 162.6 82.9272 162.62C82.3701 162.628 81.8327 162.49 81.3148 162.206C80.7993 161.911 80.361 161.485 79.9997 160.928C79.6385 160.371 79.4348 159.807 79.3888 159.236C79.3452 158.654 79.4453 158.117 79.6889 157.626C79.9394 157.129 80.3129 156.72 80.8096 156.398ZM81.4865 157.089C81.1576 157.302 80.901 157.583 80.7169 157.932C80.5394 158.275 80.4635 158.658 80.4892 159.08C80.5173 159.491 80.6662 159.905 80.9361 160.321C81.2059 160.737 81.5292 161.052 81.906 161.265C82.285 161.467 82.6721 161.564 83.0672 161.556C83.469 161.544 83.8344 161.431 84.1633 161.217C84.4989 161 84.7533 160.716 84.9264 160.365C85.1062 160.01 85.1799 159.624 85.1475 159.206C85.1174 158.778 84.9675 158.355 84.6976 157.939C84.4278 157.523 84.1055 157.217 83.7307 157.021C83.3584 156.815 82.9735 156.721 82.576 156.74C82.1853 156.755 81.8221 156.872 81.4865 157.089ZM86.8614 153.933C86.7464 153.035 87.0849 152.329 87.877 151.816L88.4972 152.772L88.2555 152.929C87.7857 153.233 87.5071 153.591 87.4198 154C87.3348 154.398 87.4882 154.899 87.8799 155.504L89.8385 158.524L88.9223 159.118L85.338 153.591L86.2543 152.997L86.8614 153.933ZM91.2616 149.621C91.7315 149.316 92.2128 149.161 92.7055 149.157C93.2048 149.147 93.6605 149.262 94.0724 149.5L92.1073 146.47L93.0336 145.869L97.8648 153.32L96.9385 153.92L96.2073 152.793C96.2611 153.273 96.1841 153.742 95.9763 154.201C95.7709 154.649 95.4333 155.025 94.9634 155.33C94.4667 155.652 93.9386 155.823 93.3792 155.842C92.8221 155.851 92.2847 155.713 91.7668 155.429C91.2514 155.134 90.813 154.708 90.4517 154.151C90.0905 153.593 89.8869 153.029 89.8409 152.459C89.7972 151.877 89.8973 151.34 90.141 150.848C90.3914 150.352 90.7649 149.943 91.2616 149.621ZM91.9385 150.312C91.6096 150.525 91.3531 150.806 91.1689 151.154C90.9914 151.498 90.9155 151.881 90.9412 152.303C90.9693 152.714 91.1182 153.127 91.3881 153.543C91.658 153.96 91.9812 154.274 92.358 154.488C92.7371 154.69 93.1242 154.787 93.5192 154.779C93.921 154.766 94.2864 154.653 94.6153 154.44C94.9509 154.222 95.2053 153.938 95.3784 153.588C95.5582 153.233 95.6319 152.846 95.5995 152.429C95.5695 152 95.4195 151.578 95.1496 151.162C94.8798 150.745 94.5575 150.439 94.1828 150.244C93.8104 150.037 93.4255 149.944 93.028 149.963C92.6373 149.978 92.2741 150.094 91.9385 150.312Z" fill="white"/>
<path d="M111.086 289.168L107.985 291.179L108.434 293.061L107.498 293.669L105.51 285.046L106.517 284.393L113.569 289.732L112.622 290.346L111.086 289.168ZM110.355 288.612L106.729 285.844L107.777 290.284L110.355 288.612ZM118.382 281.706C118.847 282.424 119.102 283.14 119.146 283.856C119.186 284.564 119.02 285.234 118.648 285.866C118.279 286.487 117.721 287.039 116.976 287.522L114.771 288.952L110.247 281.975L112.452 280.545C113.197 280.062 113.935 279.788 114.666 279.724C115.399 279.649 116.085 279.781 116.724 280.12C117.359 280.452 117.912 280.981 118.382 281.706ZM116.519 286.818C117.398 286.248 117.913 285.571 118.063 284.787C118.213 284.003 118.007 283.179 117.445 282.313C116.884 281.447 116.215 280.922 115.438 280.739C114.662 280.556 113.834 280.75 112.954 281.32L111.666 282.156L115.23 287.653L116.519 286.818ZM118.644 277.56L120.184 279.936L122.661 278.33L123.125 279.045L120.648 280.651L122.228 283.087L125.007 281.285L125.477 282.01L121.782 284.406L117.257 277.429L120.953 275.033L121.423 275.758L118.644 277.56ZM132.383 277.532L131.467 278.127L124.191 274.978L127.781 280.516L126.865 281.11L122.341 274.133L123.257 273.539L130.533 276.687L126.942 271.149L127.858 270.555L132.383 277.532ZM130.287 268.98L134.812 275.957L133.896 276.552L129.371 269.574L130.287 268.98ZM136.653 264.852L137.201 270.661L138.912 273.299L137.996 273.893L136.285 271.255L131.196 268.391L132.202 267.738L136.19 270.115L135.636 265.512L136.653 264.852ZM138.478 263.669L143.002 270.646L142.086 271.241L137.562 264.263L138.478 263.669ZM146.155 258.591C146.806 258.169 147.498 257.934 148.231 257.888C148.97 257.838 149.674 257.982 150.342 258.321C151.006 258.654 151.56 259.162 152.004 259.847C152.443 260.525 152.682 261.238 152.719 261.986C152.756 262.734 152.603 263.439 152.259 264.101C151.918 264.751 151.422 265.287 150.771 265.709C150.12 266.131 149.424 266.368 148.685 266.418C147.941 266.462 147.235 266.314 146.567 265.975C145.899 265.636 145.345 265.128 144.905 264.45C144.461 263.765 144.223 263.052 144.19 262.31C144.153 261.562 144.309 260.861 144.656 260.206C145.004 259.551 145.504 259.013 146.155 258.591ZM146.684 259.406C146.187 259.728 145.811 260.134 145.557 260.624C145.304 261.102 145.199 261.623 145.24 262.187C145.282 262.751 145.479 263.305 145.832 263.849C146.184 264.393 146.61 264.799 147.108 265.067C147.606 265.335 148.127 265.455 148.671 265.426C149.221 265.393 149.745 265.216 150.242 264.894C150.739 264.572 151.111 264.168 151.359 263.683C151.607 263.198 151.707 262.676 151.659 262.116C151.617 261.552 151.42 260.998 151.067 260.454C150.715 259.91 150.289 259.504 149.791 259.236C149.3 258.964 148.784 258.845 148.245 258.88C147.701 258.909 147.18 259.084 146.684 259.406ZM155.868 261.303L158.315 259.716L158.772 260.421L155.409 262.601L150.885 255.624L151.801 255.03L155.868 261.303ZM163.002 255.504L159.901 257.515L160.35 259.398L159.414 260.005L157.426 251.382L158.433 250.729L165.485 256.068L164.538 256.682L163.002 255.504ZM162.271 254.949L158.644 252.18L159.693 256.62L162.271 254.949ZM169.281 243.695L173.806 250.673L172.879 251.273L169.582 246.189L170.543 252.788L169.949 253.173L164.306 249.61L167.603 254.694L166.687 255.288L162.163 248.311L163.099 247.704L169.435 251.719L168.345 244.302L169.281 243.695ZM171.712 242.119L176.236 249.097L175.32 249.691L170.796 242.713L171.712 242.119ZM181.359 240.869C181.825 241.587 182.08 242.304 182.124 243.019C182.164 243.727 181.998 244.398 181.626 245.03C181.256 245.651 180.699 246.203 179.954 246.686L177.749 248.116L173.224 241.138L175.429 239.709C176.174 239.225 176.912 238.952 177.643 238.888C178.376 238.813 179.063 238.945 179.702 239.284C180.337 239.616 180.889 240.144 181.359 240.869ZM179.497 245.981C180.376 245.411 180.891 244.734 181.04 243.951C181.19 243.167 180.984 242.342 180.423 241.476C179.861 240.61 179.192 240.086 178.416 239.903C177.639 239.72 176.811 239.914 175.932 240.484L174.643 241.319L178.208 246.817L179.497 245.981ZM181.621 236.723L183.162 239.099L185.639 237.493L186.102 238.208L183.626 239.814L185.206 242.251L187.984 240.449L188.455 241.174L184.759 243.57L180.235 236.592L183.93 234.196L184.4 234.921L181.621 236.723ZM191.982 228.975L195.325 234.131C195.699 234.708 195.819 235.283 195.685 235.856C195.552 236.429 195.193 236.905 194.609 237.283C194.025 237.662 193.441 237.798 192.856 237.691C192.278 237.579 191.802 237.234 191.428 236.657L192.364 236.05C192.58 236.368 192.834 236.575 193.125 236.672C193.424 236.765 193.744 236.7 194.086 236.478C194.435 236.252 194.629 235.983 194.666 235.673C194.699 235.356 194.613 235.04 194.408 234.725L191.066 229.57L191.982 228.975ZM197.038 225.596C197.69 225.174 198.382 224.94 199.114 224.894C199.854 224.843 200.558 224.988 201.226 225.327C201.889 225.659 202.443 226.168 202.887 226.853C203.327 227.531 203.565 228.244 203.602 228.992C203.639 229.74 203.486 230.445 203.143 231.106C202.801 231.757 202.305 232.293 201.654 232.715C201.003 233.137 200.308 233.373 199.568 233.424C198.824 233.468 198.118 233.32 197.45 232.981C196.782 232.642 196.228 232.133 195.789 231.455C195.345 230.771 195.107 230.058 195.074 229.316C195.037 228.568 195.192 227.866 195.54 227.212C195.888 226.557 196.387 226.019 197.038 225.596ZM197.567 226.412C197.071 226.734 196.695 227.14 196.44 227.629C196.188 228.108 196.082 228.629 196.124 229.193C196.166 229.757 196.363 230.311 196.715 230.855C197.068 231.398 197.493 231.804 197.991 232.072C198.489 232.341 199.01 232.46 199.554 232.432C200.105 232.399 200.629 232.221 201.125 231.899C201.622 231.577 201.995 231.174 202.243 230.689C202.491 230.204 202.59 229.681 202.542 229.122C202.5 228.557 202.303 228.003 201.951 227.46C201.598 226.916 201.173 226.51 200.675 226.242C200.184 225.969 199.668 225.851 199.128 225.886C198.584 225.915 198.064 226.09 197.567 226.412ZM211.81 226.029L210.894 226.623L203.618 223.475L207.209 229.013L206.293 229.607L201.768 222.63L202.685 222.035L209.96 225.184L206.37 219.646L207.286 219.052L211.81 226.029ZM216.6 220.75L213.499 222.761L213.947 224.644L213.011 225.251L211.024 216.628L212.031 215.975L219.082 221.314L218.136 221.928L216.6 220.75ZM215.868 220.195L212.242 217.426L213.29 221.866L215.868 220.195ZM220.049 210.776L220.526 211.511L218.683 212.705L222.731 218.948L221.815 219.542L217.767 213.3L215.925 214.494L215.448 213.759L220.049 210.776ZM226.613 206.52L231.137 213.497L230.211 214.098L228.168 210.946L224.654 213.225L226.697 216.376L225.781 216.97L221.256 209.993L222.173 209.399L224.184 212.5L227.697 210.221L225.687 207.12L226.613 206.52ZM235.921 208.222L232.82 210.232L233.268 212.115L232.332 212.723L230.345 204.1L231.352 203.447L238.403 208.786L237.457 209.399L235.921 208.222ZM235.189 207.666L231.563 204.898L232.611 209.338L235.189 207.666ZM245.123 204.428L244.207 205.023L236.931 201.874L240.522 207.412L239.605 208.006L235.081 201.029L235.997 200.435L243.273 203.583L239.682 198.045L240.599 197.451L245.123 204.428Z" fill="white"/>
<path d="M114.022 296.055C114.767 295.572 115.548 295.328 116.365 295.323C117.184 295.306 117.942 295.549 118.639 296.051L117.259 296.945C116.852 296.714 116.43 296.615 115.995 296.649C115.555 296.677 115.124 296.828 114.701 297.102C114.238 297.403 113.893 297.774 113.665 298.217C113.437 298.66 113.344 299.141 113.384 299.658C113.43 300.171 113.617 300.68 113.943 301.183C114.27 301.687 114.66 302.068 115.114 302.326C115.57 302.574 116.047 302.685 116.544 302.658C117.042 302.631 117.522 302.467 117.985 302.167C118.408 301.892 118.724 301.564 118.933 301.18C119.138 300.79 119.217 300.362 119.172 299.895L120.552 299.001C120.725 299.842 120.637 300.633 120.288 301.374C119.946 302.111 119.403 302.721 118.657 303.204C118 303.63 117.301 303.869 116.561 303.919C115.817 303.963 115.108 303.818 114.433 303.483C113.765 303.144 113.209 302.632 112.765 301.947C112.321 301.262 112.081 300.546 112.044 299.798C112.014 299.045 112.172 298.341 112.52 297.687C112.87 297.021 113.371 296.477 114.022 296.055ZM121.793 293.076C122.229 292.793 122.677 292.645 123.137 292.633C123.599 292.61 124.025 292.701 124.415 292.906L123.775 291.919L124.933 291.168L128.53 296.716L127.372 297.467L126.7 296.43C126.734 296.894 126.654 297.337 126.46 297.758C126.262 298.173 125.944 298.522 125.508 298.805C125.025 299.118 124.503 299.284 123.944 299.304C123.387 299.312 122.849 299.175 122.331 298.891C121.816 298.596 121.378 298.17 121.016 297.612C120.655 297.055 120.449 296.488 120.399 295.91C120.355 295.328 120.455 294.792 120.699 294.3C120.945 293.797 121.31 293.389 121.793 293.076ZM122.681 293.916C122.386 294.107 122.158 294.359 121.999 294.673C121.835 294.979 121.764 295.325 121.786 295.712C121.81 296.087 121.946 296.466 122.194 296.849C122.442 297.231 122.737 297.517 123.079 297.705C123.427 297.889 123.779 297.976 124.134 297.965C124.492 297.943 124.815 297.838 125.103 297.651C125.399 297.46 125.626 297.207 125.785 296.894C125.945 296.581 126.01 296.234 125.982 295.852C125.956 295.459 125.818 295.071 125.57 294.688C125.322 294.305 125.026 294.025 124.682 293.848C124.345 293.666 124.001 293.584 123.65 293.602C123.3 293.62 122.976 293.724 122.681 293.916ZM128.215 290.413C128.165 289.969 128.219 289.567 128.377 289.207C128.537 288.836 128.808 288.527 129.191 288.279L129.961 289.467L129.669 289.656C129.219 289.948 128.951 290.284 128.864 290.664C128.784 291.041 128.927 291.511 129.292 292.074L131.186 294.994L130.038 295.739L126.44 290.191L127.588 289.447L128.215 290.413ZM132.481 286.145C132.917 285.862 133.365 285.715 133.825 285.703C134.287 285.68 134.713 285.771 135.103 285.976L133.229 283.086L134.387 282.335L139.218 289.786L138.06 290.537L137.388 289.5C137.422 289.964 137.342 290.407 137.148 290.828C136.95 291.243 136.632 291.591 136.196 291.874C135.713 292.188 135.191 292.354 134.632 292.374C134.075 292.382 133.537 292.244 133.019 291.96C132.504 291.665 132.066 291.239 131.704 290.682C131.343 290.125 131.137 289.558 131.087 288.98C131.043 288.398 131.143 287.861 131.387 287.369C131.633 286.867 131.998 286.459 132.481 286.145ZM133.369 286.985C133.074 287.177 132.846 287.429 132.687 287.742C132.523 288.049 132.452 288.395 132.474 288.781C132.498 289.157 132.634 289.536 132.882 289.918C133.13 290.301 133.425 290.586 133.767 290.775C134.115 290.959 134.467 291.046 134.822 291.035C135.18 291.012 135.503 290.908 135.791 290.721C136.087 290.529 136.314 290.277 136.473 289.964C136.633 289.651 136.698 289.303 136.67 288.921C136.644 288.528 136.506 288.14 136.258 287.758C136.01 287.375 135.714 287.095 135.37 286.918C135.033 286.736 134.689 286.654 134.338 286.671C133.988 286.689 133.664 286.794 133.369 286.985ZM139.99 281.276C140.392 281.015 140.814 280.871 141.253 280.843C141.7 280.811 142.132 280.912 142.551 281.146C142.976 281.376 143.352 281.742 143.678 282.245L145.8 285.518L144.663 286.255L142.652 283.154C142.33 282.658 141.96 282.359 141.541 282.258C141.119 282.151 140.693 282.236 140.263 282.515C139.834 282.793 139.578 283.15 139.498 283.584C139.419 284.006 139.541 284.466 139.863 284.963L141.874 288.064L140.726 288.808L135.894 281.357L137.042 280.613L138.844 283.392C138.821 282.959 138.908 282.564 139.106 282.207C139.306 281.839 139.6 281.529 139.99 281.276ZM146.065 277.337C146.595 276.993 147.151 276.799 147.733 276.756C148.315 276.712 148.872 276.828 149.403 277.103C149.934 277.378 150.383 277.798 150.748 278.362C151.114 278.926 151.311 279.508 151.339 280.11C151.366 280.712 151.237 281.277 150.951 281.806C150.667 282.324 150.26 282.755 149.73 283.099C149.206 283.438 148.657 283.627 148.081 283.667C147.502 283.699 146.952 283.579 146.432 283.306C145.907 283.027 145.46 282.602 145.09 282.031C144.724 281.467 144.524 280.887 144.49 280.289C144.455 279.692 144.577 279.136 144.854 278.623C145.131 278.109 145.535 277.681 146.065 277.337ZM146.672 278.317C146.376 278.508 146.152 278.758 146 279.067C145.843 279.369 145.781 279.714 145.813 280.103C145.849 280.481 145.997 280.871 146.258 281.274C146.519 281.676 146.814 281.976 147.142 282.174C147.477 282.367 147.813 282.458 148.15 282.449C148.49 282.429 148.807 282.324 149.103 282.132C149.398 281.941 149.625 281.688 149.785 281.375C149.951 281.058 150.023 280.706 150.001 280.319C149.975 279.926 149.832 279.528 149.57 279.126C149.309 278.723 149.01 278.431 148.673 278.249C148.331 278.06 147.987 277.978 147.641 278.003C147.29 278.02 146.967 278.125 146.672 278.317ZM150.002 272.21L154.833 279.661L153.685 280.405L148.854 272.954L150.002 272.21ZM154.919 271.596C155.355 271.313 155.803 271.165 156.263 271.154C156.725 271.131 157.151 271.221 157.541 271.426L155.667 268.536L156.825 267.786L161.656 275.236L160.498 275.987L159.826 274.95C159.86 275.414 159.78 275.857 159.586 276.278C159.387 276.693 159.07 277.042 158.634 277.325C158.151 277.638 157.629 277.805 157.07 277.824C156.513 277.833 155.975 277.695 155.457 277.411C154.942 277.116 154.504 276.69 154.142 276.133C153.781 275.575 153.575 275.008 153.525 274.431C153.481 273.849 153.581 273.312 153.825 272.82C154.071 272.317 154.436 271.909 154.919 271.596ZM155.807 272.436C155.512 272.627 155.284 272.88 155.125 273.193C154.961 273.499 154.89 273.845 154.912 274.232C154.936 274.607 155.072 274.986 155.32 275.369C155.568 275.751 155.863 276.037 156.205 276.225C156.553 276.41 156.905 276.496 157.26 276.485C157.617 276.463 157.941 276.358 158.229 276.171C158.524 275.98 158.752 275.728 158.911 275.414C159.07 275.101 159.136 274.754 159.107 274.372C159.081 273.979 158.944 273.591 158.696 273.208C158.448 272.826 158.152 272.546 157.808 272.368C157.471 272.186 157.127 272.104 156.776 272.122C156.425 272.14 156.102 272.244 155.807 272.436ZM166.348 268.032C166.475 268.227 166.579 268.416 166.661 268.602L162.412 271.357C162.739 271.803 163.133 272.072 163.593 272.164C164.056 272.245 164.502 272.147 164.932 271.868C165.556 271.463 165.828 270.92 165.748 270.238L166.986 269.435C167.149 270.054 167.116 270.671 166.886 271.287C166.652 271.897 166.209 272.413 165.558 272.835C165.028 273.179 164.482 273.366 163.92 273.396C163.354 273.42 162.814 273.294 162.301 273.016C161.79 272.728 161.349 272.299 160.979 271.728C160.609 271.157 160.399 270.583 160.349 270.006C160.301 269.417 160.409 268.87 160.672 268.366C160.943 267.857 161.35 267.426 161.894 267.073C162.417 266.734 162.958 266.545 163.515 266.508C164.073 266.471 164.598 266.583 165.092 266.844C165.586 267.106 166.005 267.502 166.348 268.032ZM164.994 268.567C164.691 268.115 164.305 267.851 163.835 267.774C163.362 267.69 162.907 267.789 162.47 268.072C162.061 268.338 161.801 268.702 161.691 269.164C161.583 269.615 161.657 270.082 161.913 270.565L164.994 268.567ZM167.555 264.904C167.505 264.459 167.559 264.057 167.717 263.698C167.877 263.327 168.148 263.018 168.531 262.769L169.301 263.958L169.009 264.147C168.56 264.439 168.291 264.775 168.204 265.155C168.124 265.531 168.267 266.001 168.632 266.565L170.526 269.485L169.378 270.229L165.781 264.682L166.928 263.937L167.555 264.904Z" fill="white"/>
<path d="M251.177 108.193L252.718 110.569L255.195 108.963L255.659 109.678L253.182 111.284L254.762 113.721L257.541 111.919L258.011 112.644L254.315 115.04L249.791 108.062L253.486 105.666L253.956 106.391L251.177 108.193ZM259.758 107.577L263.326 109.197L262.289 109.87L259.648 108.664L259.761 111.508L258.765 112.155L258.771 108.26L255.18 106.627L256.217 105.955L258.875 107.163L258.765 104.303L259.751 103.663L259.758 107.577ZM263.524 101.088C264.021 100.766 264.543 100.594 265.092 100.572C265.647 100.546 266.178 100.674 266.685 100.955C267.194 101.226 267.629 101.64 267.99 102.197C268.351 102.754 268.558 103.33 268.611 103.925C268.665 104.51 268.572 105.057 268.33 105.566C268.091 106.064 267.723 106.475 267.226 106.797C266.756 107.102 266.271 107.258 265.772 107.268C265.275 107.266 264.815 107.144 264.392 106.904L266.821 110.649L265.905 111.243L260.623 103.098L261.539 102.504L262.257 103.611C262.214 103.134 262.296 102.671 262.501 102.223C262.713 101.771 263.054 101.393 263.524 101.088ZM263.859 102.001C263.53 102.214 263.275 102.498 263.096 102.853C262.923 103.204 262.851 103.594 262.881 104.022C262.913 104.44 263.065 104.857 263.334 105.273C263.604 105.689 263.925 106 264.298 106.207C264.673 106.403 265.055 106.493 265.446 106.478C265.843 106.459 266.207 106.342 266.535 106.129C266.864 105.916 267.119 105.632 267.299 105.277C267.474 104.915 267.541 104.519 267.5 104.088C267.466 103.652 267.314 103.227 267.044 102.81C266.774 102.394 266.454 102.092 266.083 101.903C265.715 101.703 265.335 101.616 264.942 101.642C264.555 101.664 264.194 101.783 263.859 102.001ZM266.238 97.3119C266.124 97.1374 266.089 96.9506 266.132 96.7514C266.174 96.5522 266.279 96.3983 266.447 96.2894C266.622 96.1763 266.808 96.1409 267.008 96.1834C267.207 96.2259 267.363 96.3344 267.476 96.5089C267.589 96.6834 267.625 96.8703 267.582 97.0694C267.54 97.2686 267.431 97.4248 267.257 97.5379C267.082 97.6511 266.895 97.6865 266.696 97.644C266.504 97.5971 266.351 97.4865 266.238 97.3119ZM268.284 98.1302L271.868 103.658L270.952 104.252L267.368 98.7243L268.284 98.1302ZM271.32 97.4918C271.205 96.5938 271.543 95.8881 272.335 95.3745L272.956 96.331L272.714 96.4877C272.244 96.7923 271.966 97.1494 271.878 97.5588C271.793 97.9571 271.947 98.4583 272.338 99.0625L274.297 102.083L273.381 102.677L269.797 97.1495L270.713 96.5554L271.32 97.4918ZM273.876 94.5043L278.466 97.8779L277.289 92.2911L278.236 91.6773L280.165 101.954L279.219 102.567L278.58 99.1774L272.869 95.1572L273.876 94.5043ZM284.343 87.5882C284.813 87.2836 285.294 87.1288 285.787 87.124C286.287 87.1148 286.742 87.2294 287.154 87.4676L285.189 84.437L286.115 83.8363L290.947 91.287L290.02 91.8877L289.289 90.76C289.343 91.24 289.266 91.7094 289.058 92.1683C288.853 92.6162 288.515 92.9924 288.045 93.2971C287.548 93.6192 287.02 93.79 286.461 93.8095C285.904 93.8179 285.366 93.6802 284.849 93.3962C284.333 93.1012 283.895 92.6751 283.533 92.118C283.172 91.5608 282.969 90.9968 282.923 90.426C282.879 89.844 282.979 89.3072 283.223 88.8155C283.473 88.3194 283.847 87.9103 284.343 87.5882ZM285.02 88.2792C284.691 88.4925 284.435 88.7732 284.251 89.1215C284.073 89.4654 283.997 89.8483 284.023 90.2702C284.051 90.6811 284.2 91.0946 284.47 91.5108C284.74 91.927 285.063 92.2417 285.44 92.4551C285.819 92.6574 286.206 92.7544 286.601 92.7462C287.003 92.7335 287.368 92.6206 287.697 92.4073C288.033 92.1897 288.287 91.9056 288.46 91.5549C288.64 91.2 288.714 90.8137 288.681 90.3961C288.651 89.9675 288.501 89.5451 288.231 89.1289C287.961 88.7127 287.639 88.4069 287.264 88.2112C286.892 88.0046 286.507 87.9109 286.11 87.9303C285.719 87.9453 285.356 88.0616 285.02 88.2792ZM291.088 83.2145C291.558 82.9098 292.04 82.7551 292.532 82.7503C293.032 82.7411 293.487 82.8556 293.899 83.0939L293.181 81.9863L294.107 81.3857L297.692 86.9133L296.765 87.5139L296.034 86.3863C296.088 86.8663 296.011 87.3357 295.803 87.7946C295.598 88.2424 295.26 88.6187 294.79 88.9234C294.294 89.2455 293.765 89.4162 293.206 89.4358C292.649 89.4442 292.112 89.3064 291.594 89.0225C291.078 88.7274 290.64 88.3013 290.279 87.7442C289.917 87.1871 289.714 86.6231 289.668 86.0522C289.624 85.4703 289.724 84.9335 289.968 84.4418C290.218 83.9457 290.592 83.5366 291.088 83.2145ZM291.765 83.9055C291.436 84.1187 291.18 84.3995 290.996 84.7477C290.818 85.0916 290.742 85.4746 290.768 85.8965C290.796 86.3074 290.945 86.7209 291.215 87.1371C291.485 87.5532 291.808 87.868 292.185 88.0814C292.564 88.2837 292.951 88.3807 293.346 88.3724C293.748 88.3598 294.113 88.2468 294.442 88.0336C294.778 87.8159 295.032 87.5318 295.205 87.1812C295.385 86.8262 295.459 86.44 295.426 86.0224C295.396 85.5937 295.246 85.1713 294.976 84.7552C294.707 84.339 294.384 84.0331 294.01 83.8375C293.637 83.6308 293.252 83.5372 292.855 83.5565C292.464 83.5715 292.101 83.6878 291.765 83.9055ZM301.286 83.5246L301.769 84.2697L300.842 84.8703C300.372 85.175 299.939 85.2937 299.543 85.2266C299.153 85.155 298.8 84.8743 298.482 84.3843L296.301 81.0214L295.587 81.4849L295.103 80.7398L295.818 80.2763L294.93 78.907L295.857 78.3063L296.745 79.6757L298.174 78.7486L298.657 79.4936L297.228 80.4207L299.408 83.7836C299.569 84.032 299.733 84.1739 299.899 84.2093C300.065 84.2447 300.275 84.1797 300.53 84.0143L301.286 83.5246ZM305.855 77.3721C305.982 77.5667 306.086 77.7567 306.168 77.9419L301.768 80.7949C302.151 81.328 302.605 81.6533 303.13 81.7709C303.657 81.8775 304.168 81.7697 304.665 81.4476C305.041 81.2039 305.302 80.9154 305.448 80.5822C305.601 80.2446 305.649 79.8991 305.591 79.5455L306.578 78.9057C306.717 79.5022 306.674 80.0974 306.449 80.6915C306.23 81.2811 305.799 81.7849 305.155 82.2028C304.638 82.5379 304.099 82.7207 303.537 82.7513C302.982 82.7775 302.451 82.6498 301.944 82.3682C301.433 82.0799 300.994 81.6538 300.629 81.09C300.259 80.5194 300.049 79.9454 299.998 79.3678C299.944 78.7835 300.048 78.239 300.312 77.7342C300.576 77.2294 300.98 76.8007 301.523 76.4482C302.04 76.113 302.571 75.9312 303.115 75.9026C303.659 75.874 304.17 75.9859 304.648 76.2383C305.127 76.4907 305.529 76.8686 305.855 77.3721ZM304.82 77.8715C304.59 77.5157 304.312 77.257 303.988 77.0953C303.66 76.927 303.316 76.8593 302.956 76.8925C302.602 76.9213 302.265 77.0401 301.943 77.249C301.466 77.5581 301.169 77.9748 301.051 78.4992C300.929 79.0169 301.028 79.5584 301.347 80.1239L304.82 77.8715Z" fill="white"/>
<path d="M257.594 120.603L257.065 119.788L258.787 118.671L263.422 125.82L262.526 126.401L258.42 120.068L257.594 120.603ZM264.486 124.058C264.626 123.567 264.732 123.202 264.806 122.963C265.106 121.94 265.328 121.114 265.474 120.485C265.626 119.853 265.7 119.247 265.697 118.668C265.689 118.082 265.556 117.591 265.299 117.195C265.025 116.772 264.695 116.505 264.308 116.393C263.927 116.277 263.499 116.374 263.022 116.683C262.566 116.979 262.307 117.352 262.246 117.801C262.18 118.244 262.29 118.707 262.575 119.19L261.699 119.758C261.238 118.989 261.088 118.266 261.25 117.589C261.414 116.901 261.832 116.339 262.503 115.904C263.195 115.456 263.871 115.294 264.533 115.417C265.197 115.53 265.745 115.919 266.176 116.583C266.489 117.067 266.662 117.627 266.694 118.264C266.728 118.89 266.682 119.511 266.557 120.126C266.434 120.731 266.255 121.447 266.02 122.276C265.862 122.827 265.791 123.078 265.807 123.029L269.231 120.809L269.734 121.585L264.911 124.712L264.486 124.058ZM268.573 109.008L273.085 121.986L272.178 122.574L267.667 109.595L268.573 109.008ZM275.745 116.757C275.884 116.267 275.991 115.902 276.065 115.663C276.364 114.639 276.586 113.814 276.732 113.185C276.884 112.553 276.959 111.947 276.955 111.367C276.947 110.781 276.814 110.29 276.558 109.894C276.283 109.472 275.953 109.204 275.566 109.093C275.186 108.977 274.757 109.074 274.281 109.383C273.824 109.679 273.566 110.052 273.504 110.501C273.439 110.944 273.548 111.407 273.833 111.89L272.957 112.458C272.496 111.689 272.347 110.966 272.508 110.289C272.673 109.601 273.09 109.039 273.761 108.604C274.453 108.156 275.129 107.993 275.791 108.117C276.456 108.23 277.003 108.619 277.434 109.283C277.747 109.766 277.92 110.327 277.952 110.964C277.986 111.59 277.94 112.211 277.815 112.826C277.692 113.43 277.513 114.147 277.278 114.976C277.121 115.527 277.05 115.778 277.066 115.729L280.489 113.509L280.992 114.285L276.169 117.412L275.745 116.757ZM280.897 112.172L280.479 111.528L280.717 104.308L281.885 103.551L285.019 108.384L285.995 107.751L286.505 108.536L285.528 109.169L286.586 110.8L285.7 111.375L284.642 109.744L280.897 112.172ZM281.578 104.952L281.455 110.695L284.163 108.939L281.578 104.952Z" fill="white"/>
<path d="M71.5582 227.862L72.7219 228.48L71.2723 230.45L73.6621 229.93L73.7605 231.258L71.3574 231.081L72.9404 232.934L71.8395 233.648L70.7667 231.464L69.9385 233.775L68.7218 233.134L70.158 231.173L67.7816 231.684L67.71 230.338L70.1487 230.511L68.5839 228.627L69.6847 227.914L70.7394 230.128L71.5582 227.862ZM78.1657 223.578L79.3294 224.196L77.8797 226.166L80.2696 225.646L80.368 226.974L77.9649 226.797L79.5479 228.65L78.447 229.364L77.3742 227.18L76.546 229.49L75.3293 228.849L76.7655 226.888L74.3891 227.399L74.3175 226.054L76.7562 226.227L75.1914 224.343L76.2922 223.629L77.3469 225.844L78.1657 223.578ZM84.7732 219.293L85.9369 219.911L84.4872 221.881L86.877 221.361L86.9755 222.69L84.5724 222.512L86.1553 224.366L85.0545 225.079L83.9817 222.895L83.1534 225.206L81.9367 224.565L83.373 222.604L80.9966 223.115L80.925 221.769L83.3637 221.942L81.7988 220.058L82.8997 219.345L83.9543 221.559L84.7732 219.293ZM91.3806 215.009L92.5444 215.627L91.0947 217.597L93.4845 217.077L93.583 218.405L91.1799 218.228L92.7628 220.081L91.662 220.795L90.5892 218.611L89.7609 220.922L88.5442 220.28L89.9805 218.319L87.6041 218.83L87.5325 217.485L89.9711 217.658L88.4063 215.774L89.5072 215.06L90.5618 217.275L91.3806 215.009Z" fill="white"/>
<path d="M107.637 204.467L108.801 205.086L107.351 207.056L109.741 206.536L109.839 207.864L107.436 207.687L109.019 209.54L107.918 210.254L106.846 208.07L106.017 210.38L104.801 209.739L106.237 207.778L103.861 208.289L103.789 206.944L106.228 207.117L104.663 205.233L105.764 204.519L106.818 206.734L107.637 204.467ZM114.245 200.183L115.408 200.801L113.959 202.771L116.349 202.251L116.447 203.579L114.044 203.402L115.627 205.255L114.526 205.969L113.453 203.785L112.625 206.096L111.408 205.455L112.844 203.494L110.468 204.005L110.396 202.659L112.835 202.832L111.27 200.948L112.371 200.235L113.426 202.449L114.245 200.183ZM120.852 195.898L122.016 196.517L120.566 198.487L122.956 197.967L123.054 199.295L120.651 199.118L122.234 200.971L121.133 201.685L120.061 199.501L119.232 201.811L118.016 201.17L119.452 199.209L117.076 199.72L117.004 198.375L119.443 198.548L117.878 196.664L118.979 195.95L120.033 198.165L120.852 195.898ZM127.46 191.614L128.623 192.232L127.174 194.202L129.563 193.682L129.662 195.01L127.259 194.833L128.842 196.686L127.741 197.4L126.668 195.216L125.84 197.527L124.623 196.886L126.059 194.925L123.683 195.436L123.611 194.09L126.05 194.263L124.485 192.379L125.586 191.666L126.641 193.88L127.46 191.614Z" fill="white"/>
<path d="M143.716 181.073L144.88 181.691L143.43 183.661L145.82 183.141L145.918 184.469L143.515 184.292L145.098 186.145L143.997 186.859L142.925 184.675L142.096 186.986L140.88 186.344L142.316 184.383L139.94 184.895L139.868 183.549L142.307 183.722L140.742 181.838L141.843 181.124L142.897 183.339L143.716 181.073ZM150.324 176.788L151.487 177.407L150.038 179.376L152.427 178.857L152.526 180.185L150.123 180.008L151.706 181.861L150.605 182.575L149.532 180.391L148.704 182.701L147.487 182.06L148.923 180.099L146.547 180.61L146.475 179.265L148.914 179.438L147.349 177.554L148.45 176.84L149.505 179.055L150.324 176.788ZM156.931 172.504L158.095 173.122L156.645 175.092L159.035 174.572L159.133 175.9L156.73 175.723L158.313 177.576L157.212 178.29L156.14 176.106L155.311 178.417L154.095 177.776L155.531 175.814L153.155 176.326L153.083 174.98L155.522 175.153L153.957 173.269L155.058 172.555L156.112 174.77L156.931 172.504ZM163.539 168.219L164.702 168.838L163.253 170.807L165.642 170.288L165.741 171.616L163.338 171.439L164.921 173.292L163.82 174.006L162.747 171.822L161.919 174.132L160.702 173.491L162.138 171.53L159.762 172.041L159.69 170.696L162.129 170.869L160.564 168.985L161.665 168.271L162.72 170.486L163.539 168.219Z" fill="white"/>
<path d="M175.694 161.176L174.989 160.089L177.285 158.6L183.465 168.132L182.27 168.907L176.795 160.463L175.694 161.176ZM186.13 153.971L181.445 157.009L183.438 160.083C183.444 159.66 183.584 159.219 183.859 158.761C184.134 158.303 184.504 157.923 184.97 157.622C185.713 157.14 186.421 156.909 187.096 156.93C187.773 156.935 188.373 157.125 188.895 157.499C189.42 157.857 189.862 158.314 190.222 158.869C190.878 159.88 191.132 160.891 190.986 161.901C190.835 162.902 190.217 163.754 189.134 164.456C188.186 165.071 187.267 165.33 186.377 165.233C185.497 165.13 184.733 164.736 184.085 164.05L185.253 163.293C185.691 163.695 186.193 163.91 186.758 163.937C187.332 163.96 187.9 163.788 188.464 163.422C189.18 162.958 189.578 162.395 189.657 161.733C189.746 161.066 189.558 160.374 189.093 159.658C188.618 158.924 188.071 158.484 187.455 158.337C186.842 158.175 186.177 158.326 185.461 158.791C184.978 159.104 184.643 159.499 184.456 159.976C184.27 160.453 184.231 160.961 184.339 161.501L183.225 162.224L179.63 156.679L185.443 152.91L186.13 153.971ZM194.672 150.034C194.254 149.644 193.829 149.43 193.397 149.392C192.966 149.354 192.486 149.506 191.958 149.848C191.421 150.197 191.059 150.609 190.873 151.086C190.695 151.557 190.703 152.137 190.895 152.826C191.082 153.506 191.477 154.331 192.08 155.3C192.037 154.705 192.174 154.132 192.492 153.583C192.804 153.025 193.251 152.557 193.832 152.18C194.423 151.797 195.026 151.59 195.642 151.56C196.267 151.523 196.861 151.665 197.425 151.986C197.998 152.301 198.502 152.794 198.937 153.466C199.338 154.083 199.577 154.716 199.654 155.365C199.741 156.008 199.64 156.627 199.351 157.221C199.063 157.815 198.574 158.335 197.884 158.782C196.945 159.391 196.076 159.65 195.278 159.557C194.49 159.458 193.761 159.098 193.091 158.477C192.421 157.856 191.73 156.995 191.016 155.894C190.018 154.355 189.52 152.98 189.524 151.77C189.527 150.56 190.115 149.575 191.288 148.815C191.87 148.438 192.443 148.224 193.009 148.175C193.569 148.117 194.084 148.197 194.555 148.413C195.029 148.614 195.435 148.916 195.773 149.32L194.672 150.034ZM193.412 156.972C193.865 157.67 194.417 158.1 195.069 158.263C195.72 158.425 196.418 158.265 197.161 157.783C197.796 157.371 198.172 156.854 198.29 156.231C198.41 155.593 198.256 154.944 197.826 154.281C197.368 153.574 196.832 153.14 196.219 152.978C195.609 152.802 194.954 152.94 194.256 153.393C193.871 153.642 193.561 153.958 193.326 154.339C193.084 154.712 192.96 155.129 192.955 155.591C192.952 156.037 193.104 156.498 193.412 156.972ZM198.194 147.979C197.874 147.487 197.708 146.966 197.694 146.415C197.675 145.856 197.827 145.306 198.15 144.766C198.474 144.225 198.971 143.737 199.642 143.302C200.322 142.861 200.975 142.603 201.6 142.528C202.226 142.453 202.785 142.542 203.279 142.794C203.782 143.04 204.193 143.409 204.512 143.901C204.849 144.42 205.01 144.964 204.997 145.532C204.978 146.091 204.815 146.603 204.507 147.07C205.128 146.909 205.739 146.951 206.343 147.195C206.94 147.431 207.439 147.857 207.84 148.475C208.229 149.074 208.428 149.695 208.437 150.337C208.441 150.971 208.262 151.576 207.9 152.155C207.546 152.727 207.034 153.231 206.363 153.666C205.691 154.101 205.018 154.366 204.342 154.461C203.675 154.551 203.053 154.464 202.477 154.202C201.895 153.932 201.409 153.497 201.02 152.897C200.62 152.279 200.434 151.65 200.463 151.008C200.486 150.357 200.702 149.779 201.111 149.272C200.515 149.353 199.965 149.29 199.462 149.083C198.959 148.875 198.536 148.507 198.194 147.979ZM199.435 147.365C199.749 147.848 200.193 148.132 200.769 148.216C201.348 148.286 201.933 148.129 202.524 147.746C203.114 147.363 203.492 146.896 203.655 146.345C203.822 145.779 203.749 145.254 203.436 144.771C203.076 144.216 202.621 143.907 202.072 143.844C201.525 143.766 200.939 143.93 200.313 144.336C199.695 144.736 199.306 145.205 199.145 145.741C198.979 146.269 199.075 146.81 199.435 147.365ZM202.157 152.121C202.546 152.721 203.058 153.069 203.693 153.166C204.337 153.257 205.003 153.079 205.692 152.632C206.381 152.186 206.811 151.653 206.982 151.033C207.147 150.405 207.038 149.796 206.655 149.205C206.237 148.561 205.717 148.211 205.097 148.156C204.47 148.092 203.822 148.277 203.15 148.712C202.488 149.142 202.054 149.659 201.848 150.262C201.636 150.857 201.739 151.477 202.157 152.121Z" fill="white"/>
</g>
</g>
<defs>
<filter id="filter0_d_1_176" x="-3.09006" y="0.141479" width="391.18" height="353.717" filterUnits="userSpaceOnUse" color-interpolation-filters="sRGB">
<feFlood flood-opacity="0" result="BackgroundImageFix"/>
<feColorMatrix in="SourceAlpha" type="matrix" values="0 0 0 0 0 0 0 0 0 0 0 0 0 0 0 0 0 0 127 0" result="hardAlpha"/>
<feOffset dy="4"/>
<feGaussianBlur stdDeviation="2"/>
<feComposite in2="hardAlpha" operator="out"/>
<feColorMatrix type="matrix" values="0 0 0 0 0.0588235 0 0 0 0 0.0156863 0 0 0 0 0.556863 0 0 0 0.25 0"/>
<feBlend mode="normal" in2="BackgroundImageFix" result="effect1_dropShadow_1_176"/>
<feBlend mode="normal" in="SourceGraphic" in2="effect1_dropShadow_1_176" result="shape"/>
</filter>
<linearGradient id="paint0_linear_1_176" x1="17.9099" y1="196.549" x2="229.41" y2="378.049" gradientUnits="userSpaceOnUse">
<stop stop-color="#1709BF"/>
<stop offset="0.571147" stop-color="#080060"/>
<stop offset="0.973623" stop-color="#323232"/>
</linearGradient>
<clipPath id="clip0_1_176">
<rect x="0.909943" y="178.049" width="327" height="200" rx="16" transform="rotate(-32.9605 0.909943 178.049)" fill="white"/>
</clipPath>
</defs>
</svg>
