<svg width="100" height="100" viewBox="0 0 100 100" fill="none" xmlns="http://www.w3.org/2000/svg">
<rect width="100" height="100" rx="14.875" fill="#D1DEFF"/>
<path d="M27.515 73.5425V74.6375H24.77V83.9375H23.405V74.6375H20.66V73.5425H27.515ZM30.6785 77.0975C31.1685 76.0775 32.0035 75.5675 33.1835 75.5675V76.9925H32.8235C32.1235 76.9925 31.5885 77.1775 31.2185 77.5475C30.8585 77.9075 30.6785 78.5375 30.6785 79.4375V83.9375H29.3135V75.7025H30.6785V77.0975ZM38.2259 75.5675C38.9259 75.5675 39.5359 75.7325 40.0559 76.0625C40.5859 76.3925 40.9859 76.8225 41.2559 77.3525V75.7025H42.6359V83.9375H41.2559V82.2575C40.9859 82.7975 40.5859 83.2375 40.0559 83.5775C39.5359 83.9075 38.9259 84.0725 38.2259 84.0725C37.4859 84.0725 36.8159 83.8925 36.2159 83.5325C35.6259 83.1625 35.1559 82.6525 34.8059 82.0025C34.4659 81.3425 34.2959 80.5975 34.2959 79.7675C34.2959 78.9375 34.4659 78.2075 34.8059 77.5775C35.1559 76.9375 35.6259 76.4425 36.2159 76.0925C36.8159 75.7425 37.4859 75.5675 38.2259 75.5675ZM38.4659 76.7525C37.9759 76.7525 37.5159 76.8725 37.0859 77.1125C36.6659 77.3525 36.3259 77.7025 36.0659 78.1625C35.8159 78.6125 35.6909 79.1475 35.6909 79.7675C35.6909 80.3875 35.8159 80.9375 36.0659 81.4175C36.3259 81.8875 36.6659 82.2525 37.0859 82.5125C37.5159 82.7725 37.9759 82.9025 38.4659 82.9025C38.9659 82.9025 39.4259 82.7775 39.8459 82.5275C40.2759 82.2775 40.6159 81.9225 40.8659 81.4625C41.1259 80.9925 41.2559 80.4475 41.2559 79.8275C41.2559 79.2075 41.1259 78.6675 40.8659 78.2075C40.6159 77.7375 40.2759 77.3775 39.8459 77.1275C39.4259 76.8775 38.9659 76.7525 38.4659 76.7525ZM48.9348 75.5675C49.5248 75.5675 50.0598 75.7025 50.5398 75.9725C51.0298 76.2325 51.4148 76.6275 51.6948 77.1575C51.9848 77.6775 52.1298 78.3125 52.1298 79.0625V83.9375H50.7798V79.2875C50.7798 78.4575 50.5798 77.8275 50.1798 77.3975C49.7798 76.9675 49.2248 76.7525 48.5148 76.7525C47.8148 76.7525 47.2598 76.9675 46.8498 77.3975C46.4498 77.8275 46.2498 78.4575 46.2498 79.2875V83.9375H44.8848V75.7025H46.2498V77.0375C46.5198 76.5575 46.8898 76.1925 47.3598 75.9425C47.8298 75.6925 48.3548 75.5675 48.9348 75.5675ZM57.1387 75.5675C58.0287 75.5675 58.7337 75.8025 59.2537 76.2725C59.7737 76.7325 60.0587 77.3675 60.1087 78.1775H58.6987C58.6787 77.7175 58.5237 77.3475 58.2337 77.0675C57.9437 76.7875 57.5437 76.6475 57.0337 76.6475C56.5137 76.6475 56.1037 76.7725 55.8037 77.0225C55.5137 77.2625 55.3687 77.5675 55.3687 77.9375C55.3687 78.2475 55.4587 78.4975 55.6387 78.6875C55.8287 78.8675 56.0587 79.0025 56.3287 79.0925C56.6087 79.1825 56.9837 79.2775 57.4537 79.3775C58.0537 79.5175 58.5337 79.6575 58.8937 79.7975C59.2637 79.9275 59.5787 80.1525 59.8387 80.4725C60.0987 80.7825 60.2287 81.2075 60.2287 81.7475C60.2287 82.1975 60.0987 82.6025 59.8387 82.9625C59.5787 83.3125 59.2137 83.5875 58.7437 83.7875C58.2737 83.9775 57.7337 84.0725 57.1237 84.0725C56.2037 84.0725 55.4637 83.8425 54.9037 83.3825C54.3537 82.9225 54.0537 82.2875 54.0037 81.4775H55.4137C55.4337 81.9375 55.5937 82.3075 55.8937 82.5875C56.2037 82.8575 56.6137 82.9925 57.1237 82.9925C57.6837 82.9925 58.1137 82.8775 58.4137 82.6475C58.7237 82.4175 58.8787 82.1125 58.8787 81.7325C58.8787 81.4225 58.7837 81.1775 58.5937 80.9975C58.4137 80.8075 58.1837 80.6675 57.9037 80.5775C57.6237 80.4775 57.2387 80.3725 56.7487 80.2625C56.1587 80.1325 55.6787 80.0025 55.3087 79.8725C54.9487 79.7325 54.6387 79.5175 54.3787 79.2275C54.1287 78.9375 54.0037 78.5375 54.0037 78.0275C54.0037 77.5775 54.1287 77.1675 54.3787 76.7975C54.6387 76.4175 55.0037 76.1175 55.4737 75.8975C55.9537 75.6775 56.5087 75.5675 57.1387 75.5675ZM65.5892 76.8125H63.8642V83.9375H62.4842V76.8125H61.4192V75.7025H62.4842V75.0125C62.4842 74.1125 62.7242 73.4575 63.2042 73.0475C63.6842 72.6375 64.4392 72.4325 65.4692 72.4325V73.5425C64.8692 73.5425 64.4492 73.6575 64.2092 73.8875C63.9792 74.1075 63.8642 74.4825 63.8642 75.0125V75.7025H65.5892V76.8125ZM74.6204 79.4825C74.6204 79.7725 74.6004 80.0425 74.5604 80.2925H68.0054C68.0454 81.1125 68.3004 81.7625 68.7704 82.2425C69.2504 82.7125 69.8604 82.9475 70.6004 82.9475C71.1604 82.9475 71.6304 82.8225 72.0104 82.5725C72.4004 82.3225 72.6854 81.9925 72.8654 81.5825H74.3354C74.0754 82.3025 73.6254 82.8975 72.9854 83.3675C72.3554 83.8375 71.5604 84.0725 70.6004 84.0725C69.8304 84.0725 69.1404 83.8975 68.5304 83.5475C67.9304 83.1975 67.4604 82.7025 67.1204 82.0625C66.7804 81.4125 66.6104 80.6675 66.6104 79.8275C66.6104 78.9775 66.7804 78.2325 67.1204 77.5925C67.4604 76.9425 67.9404 76.4425 68.5604 76.0925C69.1804 75.7425 69.8954 75.5675 70.7054 75.5675C71.4754 75.5675 72.1554 75.7375 72.7454 76.0775C73.3354 76.4175 73.7954 76.8825 74.1254 77.4725C74.4554 78.0625 74.6204 78.7325 74.6204 79.4825ZM73.1954 79.3025C73.1954 78.7725 73.0804 78.3125 72.8504 77.9225C72.6204 77.5225 72.3054 77.2175 71.9054 77.0075C71.5154 76.7975 71.0804 76.6925 70.6004 76.6925C69.8904 76.6925 69.2954 76.9275 68.8154 77.3975C68.3354 77.8575 68.0704 78.4925 68.0204 79.3025H73.1954ZM77.6853 77.0975C78.1753 76.0775 79.0103 75.5675 80.1903 75.5675V76.9925H79.8303C79.1303 76.9925 78.5953 77.1775 78.2253 77.5475C77.8653 77.9075 77.6853 78.5375 77.6853 79.4375V83.9375H76.3203V75.7025H77.6853V77.0975Z" fill="#4673E2"/>
<path fill-rule="evenodd" clip-rule="evenodd" d="M62.6555 24.8162C62.0919 24.9165 61.2928 25.1787 60.0133 25.6052L46.5329 30.0987C44.1074 30.9072 42.3941 31.48 41.2136 32.003C40.6285 32.2622 40.2477 32.4782 40.006 32.6599C39.7986 32.8159 39.7513 32.9037 39.7463 32.9142C39.6033 33.2701 39.6033 33.6675 39.7463 34.0234C39.7412 34.0107 39.7697 34.0998 40.006 34.2776C40.2477 34.4593 40.6285 34.6753 41.2136 34.9345C42.3941 35.4575 44.1074 36.0303 46.5329 36.8388C46.5881 36.8572 46.6429 36.8754 46.6972 36.8934C47.4924 37.1574 48.1941 37.3903 48.7789 37.829C49.1171 38.0826 49.4174 38.383 49.6711 38.7211C50.1098 39.306 50.3427 40.0077 50.6066 40.8029C50.6246 40.8572 50.6428 40.9119 50.6612 40.9671C51.4697 43.3926 52.0426 45.106 52.5655 46.2865C52.8247 46.8716 53.0407 47.2524 53.2225 47.494C53.3784 47.7013 53.4662 47.7487 53.4767 47.7537M54.586 47.7537C54.597 47.7484 54.6847 47.7007 54.8401 47.494C55.0218 47.2524 55.2379 46.8716 55.4971 46.2865C56.02 45.106 56.5929 43.3926 57.4014 40.9671L61.8948 27.4868C62.3213 26.2073 62.5836 25.4081 62.6838 24.8445C62.6859 24.8328 62.6879 24.8214 62.6898 24.8103C62.6787 24.8121 62.6673 24.8141 62.6555 24.8162M63.0407 24.7818C63.0404 24.7821 63.0355 24.7817 63.027 24.7798C63.0368 24.7806 63.041 24.7815 63.0407 24.7818ZM62.7202 24.4731C62.7184 24.4645 62.718 24.4596 62.7182 24.4593C62.7185 24.459 62.7194 24.4633 62.7202 24.4731ZM62.1345 21.8872C62.9541 21.7414 64.0764 21.698 64.9392 22.5608C65.8021 23.4236 65.7587 24.546 65.6129 25.3656C65.4696 26.171 65.1327 27.1812 64.7527 28.3211L64.7172 28.4276L60.2237 41.9079L60.1961 41.9907C59.4214 44.3149 58.8047 46.1649 58.2171 47.4914C57.6644 48.7391 56.9451 50.0119 55.6953 50.5141C54.6274 50.9433 53.4351 50.9433 52.3673 50.5141C51.1174 50.0119 50.3982 48.7391 49.8455 47.4914C49.2578 46.1649 48.6412 44.315 47.8665 41.9907L47.8389 41.9079C47.4876 40.8542 47.402 40.654 47.2912 40.5063C47.2066 40.3935 47.1065 40.2934 46.9938 40.2089C46.846 40.098 46.6458 40.0124 45.5922 39.6612L45.5093 39.6335C43.185 38.8588 41.3351 38.2422 40.0086 37.6546C38.7609 37.1019 37.4882 36.3826 36.9859 35.1327C36.5568 34.0649 36.5568 32.8726 36.9859 31.8048C37.4882 30.5549 38.7609 29.8356 40.0086 29.2829C41.3352 28.6953 43.1851 28.0787 45.5094 27.3039L45.5922 27.2763L59.0725 22.7829L59.179 22.7474C60.3189 22.3673 61.3291 22.0305 62.1345 21.8872ZM54.5848 47.7542C54.5848 47.7542 54.5851 47.754 54.5858 47.7537Z" fill="#4673E2"/>
</svg>
