<svg width="100" height="100" viewBox="0 0 100 100" fill="none" xmlns="http://www.w3.org/2000/svg">
<rect width="100" height="100" rx="14.875" fill="#FFD3D3"/>
<path d="M21.1666 73.4375C22.2466 73.4375 23.2066 73.6925 24.0466 74.2025C24.8966 74.7125 25.5216 75.4475 25.9216 76.4075H24.2716C23.9716 75.8375 23.5516 75.4025 23.0116 75.1025C22.4716 74.8025 21.8566 74.6525 21.1666 74.6525C20.4266 74.6525 19.7566 74.8225 19.1566 75.1625C18.5666 75.4925 18.1016 75.9675 17.7616 76.5875C17.4316 77.2075 17.2666 77.9225 17.2666 78.7325C17.2666 79.5425 17.4316 80.2575 17.7616 80.8775C18.1016 81.4975 18.5666 81.9775 19.1566 82.3175C19.7566 82.6575 20.4266 82.8275 21.1666 82.8275C21.8566 82.8275 22.4716 82.6775 23.0116 82.3775C23.5516 82.0675 23.9716 81.6275 24.2716 81.0575H25.9216C25.5216 82.0175 24.8966 82.7525 24.0466 83.2625C23.2066 83.7725 22.2466 84.0275 21.1666 84.0275C20.1966 84.0275 19.3066 83.8025 18.4966 83.3525C17.6866 82.8925 17.0466 82.2625 16.5766 81.4625C16.1066 80.6525 15.8716 79.7425 15.8716 78.7325C15.8716 77.7125 16.1066 76.8025 16.5766 76.0025C17.0466 75.1925 17.6866 74.5625 18.4966 74.1125C19.3066 73.6625 20.1966 73.4375 21.1666 73.4375ZM31.4618 75.5675C32.1618 75.5675 32.7718 75.7325 33.2918 76.0625C33.8218 76.3925 34.2218 76.8225 34.4918 77.3525V75.7025H35.8718V83.9375H34.4918V82.2575C34.2218 82.7975 33.8218 83.2375 33.2918 83.5775C32.7718 83.9075 32.1618 84.0725 31.4618 84.0725C30.7218 84.0725 30.0518 83.8925 29.4518 83.5325C28.8618 83.1625 28.3918 82.6525 28.0418 82.0025C27.7018 81.3425 27.5318 80.5975 27.5318 79.7675C27.5318 78.9375 27.7018 78.2075 28.0418 77.5775C28.3918 76.9375 28.8618 76.4425 29.4518 76.0925C30.0518 75.7425 30.7218 75.5675 31.4618 75.5675ZM31.7018 76.7525C31.2118 76.7525 30.7518 76.8725 30.3218 77.1125C29.9018 77.3525 29.5618 77.7025 29.3018 78.1625C29.0518 78.6125 28.9268 79.1475 28.9268 79.7675C28.9268 80.3875 29.0518 80.9375 29.3018 81.4175C29.5618 81.8875 29.9018 82.2525 30.3218 82.5125C30.7518 82.7725 31.2118 82.9025 31.7018 82.9025C32.2018 82.9025 32.6618 82.7775 33.0818 82.5275C33.5118 82.2775 33.8518 81.9225 34.1018 81.4625C34.3618 80.9925 34.4918 80.4475 34.4918 79.8275C34.4918 79.2075 34.3618 78.6675 34.1018 78.2075C33.8518 77.7375 33.5118 77.3775 33.0818 77.1275C32.6618 76.8775 32.2018 76.7525 31.7018 76.7525ZM42.5306 75.5675C43.2706 75.5675 43.9356 75.7425 44.5256 76.0925C45.1256 76.4425 45.5956 76.9375 45.9356 77.5775C46.2856 78.2075 46.4606 78.9375 46.4606 79.7675C46.4606 80.5975 46.2856 81.3425 45.9356 82.0025C45.5956 82.6525 45.1256 83.1625 44.5256 83.5325C43.9356 83.8925 43.2706 84.0725 42.5306 84.0725C41.8306 84.0725 41.2156 83.9075 40.6856 83.5775C40.1656 83.2375 39.7656 82.7975 39.4856 82.2575V83.9375H38.1206V72.8375H39.4856V77.3525C39.7656 76.8225 40.1656 76.3925 40.6856 76.0625C41.2156 75.7325 41.8306 75.5675 42.5306 75.5675ZM42.2606 76.7525C41.7706 76.7525 41.3106 76.8775 40.8806 77.1275C40.4606 77.3775 40.1206 77.7375 39.8606 78.2075C39.6106 78.6675 39.4856 79.2075 39.4856 79.8275C39.4856 80.4475 39.6106 80.9925 39.8606 81.4625C40.1206 81.9225 40.4606 82.2775 40.8806 82.5275C41.3106 82.7775 41.7706 82.9025 42.2606 82.9025C42.7506 82.9025 43.2106 82.7775 43.6406 82.5275C44.0706 82.2675 44.4106 81.8975 44.6606 81.4175C44.9206 80.9375 45.0506 80.3875 45.0506 79.7675C45.0506 79.1475 44.9206 78.6125 44.6606 78.1625C44.4106 77.7025 44.0706 77.3525 43.6406 77.1125C43.2206 76.8725 42.7606 76.7525 42.2606 76.7525ZM49.5344 72.8375V83.9375H48.1694V72.8375H49.5344ZM59.2576 79.4825C59.2576 79.7725 59.2376 80.0425 59.1976 80.2925H52.6426C52.6826 81.1125 52.9376 81.7625 53.4076 82.2425C53.8876 82.7125 54.4976 82.9475 55.2376 82.9475C55.7976 82.9475 56.2676 82.8225 56.6476 82.5725C57.0376 82.3225 57.3226 81.9925 57.5026 81.5825H58.9726C58.7126 82.3025 58.2626 82.8975 57.6226 83.3675C56.9926 83.8375 56.1976 84.0725 55.2376 84.0725C54.4676 84.0725 53.7776 83.8975 53.1676 83.5475C52.5676 83.1975 52.0976 82.7025 51.7576 82.0625C51.4176 81.4125 51.2476 80.6675 51.2476 79.8275C51.2476 78.9775 51.4176 78.2325 51.7576 77.5925C52.0976 76.9425 52.5776 76.4425 53.1976 76.0925C53.8176 75.7425 54.5326 75.5675 55.3426 75.5675C56.1126 75.5675 56.7926 75.7375 57.3826 76.0775C57.9726 76.4175 58.4326 76.8825 58.7626 77.4725C59.0926 78.0625 59.2576 78.7325 59.2576 79.4825ZM57.8326 79.3025C57.8326 78.7725 57.7176 78.3125 57.4876 77.9225C57.2576 77.5225 56.9426 77.2175 56.5426 77.0075C56.1526 76.7975 55.7176 76.6925 55.2376 76.6925C54.5276 76.6925 53.9326 76.9275 53.4526 77.3975C52.9726 77.8575 52.7076 78.4925 52.6576 79.3025H57.8326ZM71.8446 73.5425V74.6375H69.0996V83.9375H67.7346V74.6375H64.9896V73.5425H71.8446ZM74.3331 73.5425L77.6031 82.4825L80.9031 73.5425H82.3581L78.3531 83.9375H76.8831L72.8781 73.5425H74.3331Z" fill="#F01616"/>
<path d="M35.0656 29.75C35.0656 27.9549 35.0688 26.7582 35.1885 25.8677C35.3025 25.02 35.497 24.6757 35.7191 24.4535C35.9413 24.2314 36.2856 24.0369 37.1334 23.9229C38.0239 23.8032 39.2205 23.8 41.0156 23.8H59.6094C61.4045 23.8 62.6011 23.8032 63.4916 23.9229C64.3394 24.0369 64.6837 24.2314 64.9059 24.4535C65.128 24.6757 65.3225 25.02 65.4365 25.8677C65.5562 26.7582 65.5594 27.9549 65.5594 29.75V44.9969H35.0656V29.75Z" stroke="#F01616" stroke-width="2.975"/>
<path d="M34.8177 44.9969C33.3116 44.9969 32.0906 46.2178 32.0906 47.724C32.0906 49.9147 33.8666 51.6906 36.0573 51.6906H64.5677C66.7584 51.6906 68.5344 49.9147 68.5344 47.724C68.5344 46.2178 67.3134 44.9969 65.8073 44.9969H34.8177Z" stroke="#F01616" stroke-width="2.975"/>
</svg>
