<svg width="100" height="100" viewBox="0 0 100 100" fill="none" xmlns="http://www.w3.org/2000/svg">
<rect width="100" height="100" rx="14.875" fill="#BDFFF3"/>
<path d="M24.49 73.5425V83.9375H23.125V73.5425H24.49ZM30.7932 75.5675C31.3832 75.5675 31.9182 75.7025 32.3982 75.9725C32.8882 76.2325 33.2732 76.6275 33.5532 77.1575C33.8432 77.6775 33.9882 78.3125 33.9882 79.0625V83.9375H32.6382V79.2875C32.6382 78.4575 32.4382 77.8275 32.0382 77.3975C31.6382 76.9675 31.0832 76.7525 30.3732 76.7525C29.6732 76.7525 29.1182 76.9675 28.7082 77.3975C28.3082 77.8275 28.1082 78.4575 28.1082 79.2875V83.9375H26.7432V75.7025H28.1082V77.0375C28.3782 76.5575 28.7482 76.1925 29.2182 75.9425C29.6882 75.6925 30.2132 75.5675 30.7932 75.5675ZM39.9871 82.8275V83.9375H38.6071C37.9071 83.9375 37.3721 83.7675 37.0021 83.4275C36.6421 83.0875 36.4621 82.5525 36.4621 81.8225V76.8125H35.3971V75.7025H36.4621V73.6625H37.8421V75.7025H39.9721V76.8125H37.8421V81.8225C37.8421 82.1925 37.9171 82.4525 38.0671 82.6025C38.2171 82.7525 38.4821 82.8275 38.8621 82.8275H39.9871ZM48.9641 79.4825C48.9641 79.7725 48.9441 80.0425 48.9041 80.2925H42.3491C42.3891 81.1125 42.6441 81.7625 43.1141 82.2425C43.5941 82.7125 44.2041 82.9475 44.9441 82.9475C45.5041 82.9475 45.9741 82.8225 46.3541 82.5725C46.7441 82.3225 47.0291 81.9925 47.2091 81.5825H48.6791C48.4191 82.3025 47.9691 82.8975 47.3291 83.3675C46.6991 83.8375 45.9041 84.0725 44.9441 84.0725C44.1741 84.0725 43.4841 83.8975 42.8741 83.5475C42.2741 83.1975 41.8041 82.7025 41.4641 82.0625C41.1241 81.4125 40.9541 80.6675 40.9541 79.8275C40.9541 78.9775 41.1241 78.2325 41.4641 77.5925C41.8041 76.9425 42.2841 76.4425 42.9041 76.0925C43.5241 75.7425 44.2391 75.5675 45.0491 75.5675C45.8191 75.5675 46.4991 75.7375 47.0891 76.0775C47.6791 76.4175 48.1391 76.8825 48.4691 77.4725C48.7991 78.0625 48.9641 78.7325 48.9641 79.4825ZM47.5391 79.3025C47.5391 78.7725 47.4241 78.3125 47.1941 77.9225C46.9641 77.5225 46.6491 77.2175 46.2491 77.0075C45.8591 76.7975 45.4241 76.6925 44.9441 76.6925C44.2341 76.6925 43.6391 76.9275 43.1591 77.3975C42.6791 77.8575 42.4141 78.4925 42.3641 79.3025H47.5391ZM52.0291 77.0975C52.5191 76.0775 53.3541 75.5675 54.5341 75.5675V76.9925H54.1741C53.4741 76.9925 52.9391 77.1775 52.5691 77.5475C52.2091 77.9075 52.0291 78.5375 52.0291 79.4375V83.9375H50.6641V75.7025H52.0291V77.0975ZM60.2365 75.5675C60.8265 75.5675 61.3615 75.7025 61.8415 75.9725C62.3315 76.2325 62.7165 76.6275 62.9965 77.1575C63.2865 77.6775 63.4315 78.3125 63.4315 79.0625V83.9375H62.0815V79.2875C62.0815 78.4575 61.8815 77.8275 61.4815 77.3975C61.0815 76.9675 60.5265 76.7525 59.8165 76.7525C59.1165 76.7525 58.5615 76.9675 58.1515 77.3975C57.7515 77.8275 57.5515 78.4575 57.5515 79.2875V83.9375H56.1865V75.7025H57.5515V77.0375C57.8215 76.5575 58.1915 76.1925 58.6615 75.9425C59.1315 75.6925 59.6565 75.5675 60.2365 75.5675ZM73.0755 79.4825C73.0755 79.7725 73.0555 80.0425 73.0155 80.2925H66.4605C66.5005 81.1125 66.7555 81.7625 67.2255 82.2425C67.7055 82.7125 68.3155 82.9475 69.0555 82.9475C69.6155 82.9475 70.0855 82.8225 70.4655 82.5725C70.8555 82.3225 71.1405 81.9925 71.3205 81.5825H72.7905C72.5305 82.3025 72.0805 82.8975 71.4405 83.3675C70.8105 83.8375 70.0155 84.0725 69.0555 84.0725C68.2855 84.0725 67.5955 83.8975 66.9855 83.5475C66.3855 83.1975 65.9155 82.7025 65.5755 82.0625C65.2355 81.4125 65.0655 80.6675 65.0655 79.8275C65.0655 78.9775 65.2355 78.2325 65.5755 77.5925C65.9155 76.9425 66.3955 76.4425 67.0155 76.0925C67.6355 75.7425 68.3505 75.5675 69.1605 75.5675C69.9305 75.5675 70.6105 75.7375 71.2005 76.0775C71.7905 76.4175 72.2505 76.8825 72.5805 77.4725C72.9105 78.0625 73.0755 78.7325 73.0755 79.4825ZM71.6505 79.3025C71.6505 78.7725 71.5355 78.3125 71.3055 77.9225C71.0755 77.5225 70.7605 77.2175 70.3605 77.0075C69.9705 76.7975 69.5355 76.6925 69.0555 76.6925C68.3455 76.6925 67.7505 76.9275 67.2705 77.3975C66.7905 77.8575 66.5255 78.4925 66.4755 79.3025H71.6505ZM78.6004 82.8275V83.9375H77.2204C76.5204 83.9375 75.9854 83.7675 75.6154 83.4275C75.2554 83.0875 75.0754 82.5525 75.0754 81.8225V76.8125H74.0104V75.7025H75.0754V73.6625H76.4554V75.7025H78.5854V76.8125H76.4554V81.8225C76.4554 82.1925 76.5304 82.4525 76.6804 82.6025C76.8304 82.7525 77.0954 82.8275 77.4754 82.8275H78.6004Z" fill="#1BCBAB"/>
<circle cx="49.5687" cy="48.3438" r="3.71875" fill="#1BCBAB"/>
<path d="M66.1172 24.688C61.312 21.9137 55.8611 20.4531 50.3125 20.4531C44.7639 20.4531 39.313 21.9137 34.5078 24.688" stroke="#1BCBAB" stroke-width="2.975" stroke-linecap="round"/>
<path d="M61.4688 32.7393C58.0768 30.781 54.2292 29.75 50.3125 29.75C46.3958 29.75 42.5482 30.781 39.1563 32.7393" stroke="#1BCBAB" stroke-width="2.975" stroke-linecap="round"/>
<path d="M57.75 41.0397C55.4887 39.7342 52.9236 39.0469 50.3125 39.0469C47.7014 39.0469 45.1363 39.7342 42.875 41.0397" stroke="#1BCBAB" stroke-width="2.975" stroke-linecap="round"/>
</svg>
