<svg width="100" height="100" viewBox="0 0 100 100" fill="none" xmlns="http://www.w3.org/2000/svg">
<rect width="100" height="100" rx="14.875" fill="#F0D1FF"/>
<path d="M31.485 81.6575H26.865L26.055 83.9375H24.66L28.44 73.5425H29.94L33.705 83.9375H32.295L31.485 81.6575ZM31.095 80.5775L29.175 75.2075L27.255 80.5775H31.095ZM35.2711 73.4525C35.2711 73.1925 35.3611 72.9725 35.5411 72.7925C35.7211 72.6125 35.9361 72.5225 36.1861 72.5225C36.4461 72.5225 36.6661 72.6125 36.8461 72.7925C37.0261 72.9725 37.1161 73.1925 37.1161 73.4525C37.1161 73.7125 37.0261 73.9325 36.8461 74.1125C36.6661 74.2925 36.4461 74.3825 36.1861 74.3825C35.9261 74.3825 35.7061 74.2925 35.5261 74.1125C35.3561 73.9325 35.2711 73.7125 35.2711 73.4525ZM36.8611 75.7025V83.9375H35.4961V75.7025H36.8611ZM40.4793 77.0975C40.9693 76.0775 41.8043 75.5675 42.9843 75.5675V76.9925H42.6243C41.9243 76.9925 41.3893 77.1775 41.0193 77.5475C40.6593 77.9075 40.4793 78.5375 40.4793 79.4375V83.9375H39.1143V75.7025H40.4793V77.0975ZM48.4617 82.8275V83.9375H47.0817C46.3817 83.9375 45.8467 83.7675 45.4767 83.4275C45.1167 83.0875 44.9367 82.5525 44.9367 81.8225V76.8125H43.8717V75.7025H44.9367V73.6625H46.3167V75.7025H48.4467V76.8125H46.3167V81.8225C46.3167 82.1925 46.3917 82.4525 46.5417 82.6025C46.6917 82.7525 46.9567 82.8275 47.3367 82.8275H48.4617ZM49.7438 73.4525C49.7438 73.1925 49.8338 72.9725 50.0138 72.7925C50.1938 72.6125 50.4088 72.5225 50.6588 72.5225C50.9188 72.5225 51.1388 72.6125 51.3188 72.7925C51.4988 72.9725 51.5888 73.1925 51.5888 73.4525C51.5888 73.7125 51.4988 73.9325 51.3188 74.1125C51.1388 74.2925 50.9188 74.3825 50.6588 74.3825C50.3988 74.3825 50.1788 74.2925 49.9988 74.1125C49.8288 73.9325 49.7438 73.7125 49.7438 73.4525ZM51.3338 75.7025V83.9375H49.9688V75.7025H51.3338ZM63.4869 75.5675C64.0869 75.5675 64.6319 75.7025 65.1219 75.9725C65.6119 76.2325 65.9969 76.6275 66.2769 77.1575C66.5669 77.6775 66.7119 78.3125 66.7119 79.0625V83.9375H65.3619V79.2875C65.3619 78.4575 65.1569 77.8275 64.7469 77.3975C64.3469 76.9675 63.7969 76.7525 63.0969 76.7525C62.3969 76.7525 61.8419 76.9675 61.4319 77.3975C61.0319 77.8275 60.8319 78.4575 60.8319 79.2875V83.9375H59.4819V79.2875C59.4819 78.4575 59.2819 77.8275 58.8819 77.3975C58.4819 76.9675 57.9269 76.7525 57.2169 76.7525C56.5169 76.7525 55.9619 76.9675 55.5519 77.3975C55.1519 77.8275 54.9519 78.4575 54.9519 79.2875V83.9375H53.5869V75.7025H54.9519V77.0375C55.2219 76.5575 55.5919 76.1925 56.0619 75.9425C56.5319 75.6925 57.0569 75.5675 57.6369 75.5675C58.2669 75.5675 58.8369 75.7225 59.3469 76.0325C59.8569 76.3325 60.2419 76.7725 60.5019 77.3525C60.8019 76.7925 61.2069 76.3575 61.7169 76.0475C62.2369 75.7275 62.8269 75.5675 63.4869 75.5675ZM76.3499 79.4825C76.3499 79.7725 76.3299 80.0425 76.2899 80.2925H69.7349C69.7749 81.1125 70.0299 81.7625 70.4999 82.2425C70.9799 82.7125 71.5899 82.9475 72.3299 82.9475C72.8899 82.9475 73.3599 82.8225 73.7399 82.5725C74.1299 82.3225 74.4149 81.9925 74.5949 81.5825H76.0649C75.8049 82.3025 75.3549 82.8975 74.7149 83.3675C74.0849 83.8375 73.2899 84.0725 72.3299 84.0725C71.5599 84.0725 70.8699 83.8975 70.2599 83.5475C69.6599 83.1975 69.1899 82.7025 68.8499 82.0625C68.5099 81.4125 68.3399 80.6675 68.3399 79.8275C68.3399 78.9775 68.5099 78.2325 68.8499 77.5925C69.1899 76.9425 69.6699 76.4425 70.2899 76.0925C70.9099 75.7425 71.6249 75.5675 72.4349 75.5675C73.2049 75.5675 73.8849 75.7375 74.4749 76.0775C75.0649 76.4175 75.5249 76.8825 75.8549 77.4725C76.1849 78.0625 76.3499 78.7325 76.3499 79.4825ZM74.9249 79.3025C74.9249 78.7725 74.8099 78.3125 74.5799 77.9225C74.3499 77.5225 74.0349 77.2175 73.6349 77.0075C73.2449 76.7975 72.8099 76.6925 72.3299 76.6925C71.6199 76.6925 71.0249 76.9275 70.5449 77.3975C70.0649 77.8575 69.7999 78.4925 69.7499 79.3025H74.9249Z" fill="#9F1EDC"/>
<path d="M39.6775 23.6119C39.8359 22.4343 40.186 21.3575 41.053 20.4905C41.92 19.6235 42.9968 19.2734 44.1744 19.115C45.2866 18.9655 46.6851 18.9656 48.3511 18.9656L48.4531 18.9656H52.1719L52.2739 18.9656C53.9399 18.9656 55.3384 18.9655 56.4506 19.115C57.6282 19.2734 58.705 19.6235 59.572 20.4905C60.439 21.3575 60.7891 22.4343 60.9475 23.6119C61.097 24.7241 61.0969 26.1226 61.0969 27.7885L61.0969 27.8906V46.4844L61.0969 46.5865C61.0969 48.2524 61.097 49.6509 60.9475 50.7631C60.7891 51.9407 60.439 53.0175 59.572 53.8845C58.705 54.7515 57.6282 55.1016 56.4506 55.26C55.3384 55.4095 53.9399 55.4094 52.2739 55.4094H52.1719H48.4531H48.3511C46.6851 55.4094 45.2866 55.4095 44.1744 55.26C42.9968 55.1016 41.92 54.7515 41.053 53.8845M39.6775 23.6119L41.053 53.8845C41.053 53.8845 41.053 53.8845 41.053 53.8845M39.6775 23.6119C39.528 24.7241 39.5281 26.1226 39.5281 27.7886L39.5281 27.8906V46.4844L39.5281 46.5864C39.5281 48.2524 39.528 49.6509 39.6775 50.7631C39.8359 51.9407 40.186 53.0175 41.053 53.8845H41.053M39.6775 23.6119L41.053 53.8845" stroke="#9F1EDC" stroke-width="2.975"/>
<path d="M41.0156 44.625H59.6094" stroke="#9F1EDC" stroke-width="2.975"/>
</svg>
