<svg width="100" height="100" viewBox="0 0 100 100" fill="none" xmlns="http://www.w3.org/2000/svg">
<rect width="100" height="100" rx="14.875" fill="#FFE6C9"/>
<path d="M23.73 73.4375C24.81 73.4375 25.77 73.6925 26.61 74.2025C27.46 74.7125 28.085 75.4475 28.485 76.4075H26.835C26.535 75.8375 26.115 75.4025 25.575 75.1025C25.035 74.8025 24.42 74.6525 23.73 74.6525C22.99 74.6525 22.32 74.8225 21.72 75.1625C21.13 75.4925 20.665 75.9675 20.325 76.5875C19.995 77.2075 19.83 77.9225 19.83 78.7325C19.83 79.5425 19.995 80.2575 20.325 80.8775C20.665 81.4975 21.13 81.9775 21.72 82.3175C22.32 82.6575 22.99 82.8275 23.73 82.8275C24.42 82.8275 25.035 82.6775 25.575 82.3775C26.115 82.0675 26.535 81.6275 26.835 81.0575H28.485C28.085 82.0175 27.46 82.7525 26.61 83.2625C25.77 83.7725 24.81 84.0275 23.73 84.0275C22.76 84.0275 21.87 83.8025 21.06 83.3525C20.25 82.8925 19.61 82.2625 19.14 81.4625C18.67 80.6525 18.435 79.7425 18.435 78.7325C18.435 77.7125 18.67 76.8025 19.14 76.0025C19.61 75.1925 20.25 74.5625 21.06 74.1125C21.87 73.6625 22.76 73.4375 23.73 73.4375ZM34.2502 75.5675C35.0302 75.5675 35.7352 75.7425 36.3652 76.0925C36.9952 76.4425 37.4902 76.9425 37.8502 77.5925C38.2202 78.2425 38.4052 78.9875 38.4052 79.8275C38.4052 80.6575 38.2152 81.3975 37.8352 82.0475C37.4552 82.6875 36.9402 83.1875 36.2902 83.5475C35.6402 83.8975 34.9202 84.0725 34.1302 84.0725C33.3602 84.0725 32.6652 83.8975 32.0452 83.5475C31.4352 83.1975 30.9552 82.7025 30.6052 82.0625C30.2652 81.4125 30.0952 80.6675 30.0952 79.8275C30.0952 78.9775 30.2752 78.2325 30.6352 77.5925C31.0052 76.9425 31.5052 76.4425 32.1352 76.0925C32.7652 75.7425 33.4702 75.5675 34.2502 75.5675ZM34.2052 76.6925C33.7052 76.6925 33.2502 76.8125 32.8402 77.0525C32.4302 77.2925 32.1002 77.6475 31.8502 78.1175C31.6102 78.5875 31.4902 79.1575 31.4902 79.8275C31.4902 80.4875 31.6052 81.0525 31.8352 81.5225C32.0752 81.9925 32.3952 82.3475 32.7952 82.5875C33.1952 82.8275 33.6402 82.9475 34.1302 82.9475C34.6302 82.9475 35.0952 82.8275 35.5252 82.5875C35.9652 82.3375 36.3202 81.9775 36.5902 81.5075C36.8602 81.0375 36.9952 80.4775 36.9952 79.8275C36.9952 79.1675 36.8652 78.6025 36.6052 78.1325C36.3552 77.6525 36.0152 77.2925 35.5852 77.0525C35.1652 76.8125 34.7052 76.6925 34.2052 76.6925ZM44.1627 75.5675C44.7527 75.5675 45.2877 75.7025 45.7677 75.9725C46.2577 76.2325 46.6427 76.6275 46.9227 77.1575C47.2127 77.6775 47.3577 78.3125 47.3577 79.0625V83.9375H46.0077V79.2875C46.0077 78.4575 45.8077 77.8275 45.4077 77.3975C45.0077 76.9675 44.4527 76.7525 43.7427 76.7525C43.0427 76.7525 42.4877 76.9675 42.0777 77.3975C41.6777 77.8275 41.4777 78.4575 41.4777 79.2875V83.9375H40.1127V75.7025H41.4777V77.0375C41.7477 76.5575 42.1177 76.1925 42.5877 75.9425C43.0577 75.6925 43.5827 75.5675 44.1627 75.5675ZM52.5616 82.6625L55.0966 75.7025H56.5666L53.3416 83.9375H51.7966L48.5866 75.7025H50.0416L52.5616 82.6625ZM65.3366 79.4825C65.3366 79.7725 65.3166 80.0425 65.2766 80.2925H58.7216C58.7616 81.1125 59.0166 81.7625 59.4866 82.2425C59.9666 82.7125 60.5766 82.9475 61.3166 82.9475C61.8766 82.9475 62.3466 82.8225 62.7266 82.5725C63.1166 82.3225 63.4016 81.9925 63.5816 81.5825H65.0516C64.7916 82.3025 64.3416 82.8975 63.7016 83.3675C63.0716 83.8375 62.2766 84.0725 61.3166 84.0725C60.5466 84.0725 59.8566 83.8975 59.2466 83.5475C58.6466 83.1975 58.1766 82.7025 57.8366 82.0625C57.4966 81.4125 57.3266 80.6675 57.3266 79.8275C57.3266 78.9775 57.4966 78.2325 57.8366 77.5925C58.1766 76.9425 58.6566 76.4425 59.2766 76.0925C59.8966 75.7425 60.6116 75.5675 61.4216 75.5675C62.1916 75.5675 62.8716 75.7375 63.4616 76.0775C64.0516 76.4175 64.5116 76.8825 64.8416 77.4725C65.1716 78.0625 65.3366 78.7325 65.3366 79.4825ZM63.9116 79.3025C63.9116 78.7725 63.7966 78.3125 63.5666 77.9225C63.3366 77.5225 63.0216 77.2175 62.6216 77.0075C62.2316 76.7975 61.7966 76.6925 61.3166 76.6925C60.6066 76.6925 60.0116 76.9275 59.5316 77.3975C59.0516 77.8575 58.7866 78.4925 58.7366 79.3025H63.9116ZM68.4015 77.0975C68.8915 76.0775 69.7265 75.5675 70.9065 75.5675V76.9925H70.5465C69.8465 76.9925 69.3115 77.1775 68.9415 77.5475C68.5815 77.9075 68.4015 78.5375 68.4015 79.4375V83.9375H67.0365V75.7025H68.4015V77.0975ZM76.384 82.8275V83.9375H75.004C74.304 83.9375 73.769 83.7675 73.399 83.4275C73.039 83.0875 72.859 82.5525 72.859 81.8225V76.8125H71.794V75.7025H72.859V73.6625H74.239V75.7025H76.369V76.8125H74.239V81.8225C74.239 82.1925 74.314 82.4525 74.464 82.6025C74.614 82.7525 74.879 82.8275 75.259 82.8275H76.384Z" fill="#E98918"/>
<path d="M52.1719 46.4844H44.7344V51.4504C44.7344 51.6986 44.4483 51.8377 44.2531 51.6843L31.7188 41.8359L44.2531 31.9875C44.4483 31.8342 44.7344 31.9732 44.7344 32.2215V37.1875H55.8906" stroke="#E98918" stroke-width="2.975"/>
<path d="M48.4531 27.8906H55.8906V22.9246C55.8906 22.6764 56.1767 22.5373 56.3719 22.6907L68.9062 32.5391L56.3719 42.3875C56.1767 42.5408 55.8906 42.4018 55.8906 42.1535V37.1875H44.7344" stroke="#E98918" stroke-width="2.975"/>
</svg>
