<svg width="100" height="100" viewBox="0 0 100 100" fill="none" xmlns="http://www.w3.org/2000/svg">
<rect width="100" height="100" rx="14.875" fill="#CBFFD0"/>
<path d="M17.49 74.6225V78.1625H21.18V79.2275H17.49V82.8575H21.63V83.9375H16.125V73.5425H21.63V74.6225H17.49ZM25.0632 72.8375V83.9375H23.6982V72.8375H25.0632ZM34.7864 79.4825C34.7864 79.7725 34.7664 80.0425 34.7264 80.2925H28.1714C28.2114 81.1125 28.4664 81.7625 28.9364 82.2425C29.4164 82.7125 30.0264 82.9475 30.7664 82.9475C31.3264 82.9475 31.7964 82.8225 32.1764 82.5725C32.5664 82.3225 32.8514 81.9925 33.0314 81.5825H34.5014C34.2414 82.3025 33.7914 82.8975 33.1514 83.3675C32.5214 83.8375 31.7264 84.0725 30.7664 84.0725C29.9964 84.0725 29.3064 83.8975 28.6964 83.5475C28.0964 83.1975 27.6264 82.7025 27.2864 82.0625C26.9464 81.4125 26.7764 80.6675 26.7764 79.8275C26.7764 78.9775 26.9464 78.2325 27.2864 77.5925C27.6264 76.9425 28.1064 76.4425 28.7264 76.0925C29.3464 75.7425 30.0614 75.5675 30.8714 75.5675C31.6414 75.5675 32.3214 75.7375 32.9114 76.0775C33.5014 76.4175 33.9614 76.8825 34.2914 77.4725C34.6214 78.0625 34.7864 78.7325 34.7864 79.4825ZM33.3614 79.3025C33.3614 78.7725 33.2464 78.3125 33.0164 77.9225C32.7864 77.5225 32.4714 77.2175 32.0714 77.0075C31.6814 76.7975 31.2464 76.6925 30.7664 76.6925C30.0564 76.6925 29.4614 76.9275 28.9814 77.3975C28.5014 77.8575 28.2364 78.4925 28.1864 79.3025H33.3614ZM39.9363 75.5675C40.9263 75.5675 41.7313 75.7975 42.3513 76.2575C42.9813 76.7175 43.4213 77.3725 43.6713 78.2225H42.2013C42.0413 77.7425 41.7663 77.3675 41.3763 77.0975C40.9863 76.8275 40.5063 76.6925 39.9363 76.6925C39.1563 76.6925 38.5263 76.9675 38.0463 77.5175C37.5763 78.0575 37.3413 78.8275 37.3413 79.8275C37.3413 80.8175 37.5763 81.5875 38.0463 82.1375C38.5263 82.6775 39.1563 82.9475 39.9363 82.9475C40.5163 82.9475 40.9963 82.8175 41.3763 82.5575C41.7563 82.2975 42.0313 81.9175 42.2013 81.4175H43.6713C43.4213 82.2275 42.9763 82.8725 42.3363 83.3525C41.7063 83.8325 40.9063 84.0725 39.9363 84.0725C39.1663 84.0725 38.4763 83.8975 37.8663 83.5475C37.2663 83.1975 36.7963 82.7025 36.4563 82.0625C36.1163 81.4125 35.9463 80.6675 35.9463 79.8275C35.9463 78.9775 36.1163 78.2325 36.4563 77.5925C36.7963 76.9425 37.2663 76.4425 37.8663 76.0925C38.4663 75.7425 39.1563 75.5675 39.9363 75.5675ZM49.3055 82.8275V83.9375H47.9255C47.2255 83.9375 46.6905 83.7675 46.3205 83.4275C45.9605 83.0875 45.7805 82.5525 45.7805 81.8225V76.8125H44.7155V75.7025H45.7805V73.6625H47.1605V75.7025H49.2905V76.8125H47.1605V81.8225C47.1605 82.1925 47.2355 82.4525 47.3855 82.6025C47.5355 82.7525 47.8005 82.8275 48.1805 82.8275H49.3055ZM52.1775 77.0975C52.6675 76.0775 53.5025 75.5675 54.6825 75.5675V76.9925H54.3225C53.6225 76.9925 53.0875 77.1775 52.7175 77.5475C52.3575 77.9075 52.1775 78.5375 52.1775 79.4375V83.9375H50.8125V75.7025H52.1775V77.0975ZM56.11 73.4525C56.11 73.1925 56.2 72.9725 56.38 72.7925C56.56 72.6125 56.775 72.5225 57.025 72.5225C57.285 72.5225 57.505 72.6125 57.685 72.7925C57.865 72.9725 57.955 73.1925 57.955 73.4525C57.955 73.7125 57.865 73.9325 57.685 74.1125C57.505 74.2925 57.285 74.3825 57.025 74.3825C56.765 74.3825 56.545 74.2925 56.365 74.1125C56.195 73.9325 56.11 73.7125 56.11 73.4525ZM57.7 75.7025V83.9375H56.335V75.7025H57.7ZM63.4031 75.5675C64.3931 75.5675 65.1981 75.7975 65.8181 76.2575C66.4481 76.7175 66.8881 77.3725 67.1381 78.2225H65.6681C65.5081 77.7425 65.2331 77.3675 64.8431 77.0975C64.4531 76.8275 63.9731 76.6925 63.4031 76.6925C62.6231 76.6925 61.9931 76.9675 61.5131 77.5175C61.0431 78.0575 60.8081 78.8275 60.8081 79.8275C60.8081 80.8175 61.0431 81.5875 61.5131 82.1375C61.9931 82.6775 62.6231 82.9475 63.4031 82.9475C63.9831 82.9475 64.4631 82.8175 64.8431 82.5575C65.2231 82.2975 65.4981 81.9175 65.6681 81.4175H67.1381C66.8881 82.2275 66.4431 82.8725 65.8031 83.3525C65.1731 83.8325 64.3731 84.0725 63.4031 84.0725C62.6331 84.0725 61.9431 83.8975 61.3331 83.5475C60.7331 83.1975 60.2631 82.7025 59.9231 82.0625C59.5831 81.4125 59.4131 80.6675 59.4131 79.8275C59.4131 78.9775 59.5831 78.2325 59.9231 77.5925C60.2631 76.9425 60.7331 76.4425 61.3331 76.0925C61.9331 75.7425 62.6231 75.5675 63.4031 75.5675ZM68.7223 73.4525C68.7223 73.1925 68.8123 72.9725 68.9923 72.7925C69.1723 72.6125 69.3873 72.5225 69.6373 72.5225C69.8973 72.5225 70.1173 72.6125 70.2973 72.7925C70.4773 72.9725 70.5673 73.1925 70.5673 73.4525C70.5673 73.7125 70.4773 73.9325 70.2973 74.1125C70.1173 74.2925 69.8973 74.3825 69.6373 74.3825C69.3773 74.3825 69.1573 74.2925 68.9773 74.1125C68.8073 73.9325 68.7223 73.7125 68.7223 73.4525ZM70.3123 75.7025V83.9375H68.9473V75.7025H70.3123ZM76.3904 82.8275V83.9375H75.0104C74.3104 83.9375 73.7754 83.7675 73.4054 83.4275C73.0454 83.0875 72.8654 82.5525 72.8654 81.8225V76.8125H71.8004V75.7025H72.8654V73.6625H74.2454V75.7025H76.3754V76.8125H74.2454V81.8225C74.2454 82.1925 74.3204 82.4525 74.4704 82.6025C74.6204 82.7525 74.8854 82.8275 75.2654 82.8275H76.3904ZM78.4525 75.7025L80.9725 82.3625L83.5375 75.7025H84.9475L79.9825 87.7925H78.5725L80.2075 83.8025L76.9525 75.7025H78.4525Z" fill="#0AC01C"/>
<path d="M49.7542 51.4968C49.7542 51.4968 49.7551 51.4955 49.7569 51.4932C49.7551 51.4957 49.7542 51.4969 49.7542 51.4968ZM51.838 51.9558C51.8379 51.9558 51.8376 51.9544 51.8371 51.9514C51.8377 51.9542 51.838 51.9557 51.838 51.9558ZM58.535 34.5272L59.7884 33.7262C59.2239 32.8428 58.3225 32.5646 57.5837 32.455C56.8948 32.3529 56.0153 32.353 55.0574 32.3531C55.0229 32.3531 54.9884 32.3531 54.9537 32.3531H51.8V23.8299C51.8 23.8036 51.8 23.7772 51.8 23.751C51.8001 23.1572 51.8002 22.5926 51.755 22.1724C51.7322 21.9601 51.6856 21.6421 51.5474 21.3328C51.3942 20.9901 51.0373 20.4791 50.3406 20.3257C49.6438 20.1722 49.1053 20.4859 48.8223 20.7326C48.5669 20.9552 48.3911 21.2242 48.2812 21.4073C48.0636 21.7696 47.8265 22.2821 47.5771 22.8209C47.5661 22.8447 47.555 22.8686 47.544 22.8925L41.6217 35.6846C41.6072 35.716 41.5926 35.7474 41.5782 35.7786C41.1756 36.6478 40.806 37.446 40.6093 38.114C40.3983 38.8305 40.2721 39.7654 40.8366 40.6488C41.4011 41.5322 42.3025 41.8104 43.0413 41.92C43.7302 42.0221 44.6097 42.022 45.5676 42.0219C45.6021 42.0219 45.6366 42.0219 45.6713 42.0219H48.825V50.5451L48.825 50.624C48.8249 51.2178 48.8248 51.7824 48.87 52.2026C48.8928 52.4149 48.9394 52.7329 49.0776 53.0422C49.2308 53.3849 49.5877 53.8959 50.2844 54.0493C50.9812 54.2028 51.5197 53.8891 51.8027 53.6424C52.0581 53.4198 52.2339 53.1508 52.3438 52.9677C52.5614 52.6054 52.7985 52.0929 53.0479 51.5541L53.081 51.4825L59.0033 38.6904C59.0178 38.659 59.0324 38.6276 59.0468 38.5963C59.4494 37.7271 59.819 36.929 60.0157 36.261C60.2267 35.5445 60.3529 34.6096 59.7884 33.7262L58.535 34.5272ZM50.8708 22.8782C50.8708 22.8782 50.8699 22.8795 50.8681 22.8818C50.8699 22.8793 50.8708 22.8781 50.8708 22.8782ZM48.787 22.4192C48.7871 22.4192 48.7874 22.4206 48.7879 22.4236C48.7873 22.4208 48.787 22.4193 48.787 22.4192Z" stroke="#0AC01C" stroke-width="2.975"/>
</svg>
