<svg width="359" height="259" viewBox="0 0 359 259" fill="none" xmlns="http://www.w3.org/2000/svg">
<g filter="url(#filter0_d_1_158)">
<g clip-path="url(#clip0_1_158)">
<rect x="2" y="53.0291" width="327" height="200" rx="16" transform="rotate(-9.33279 2 53.0291)" fill="url(#paint0_linear_1_158)"/>
<circle cx="123.817" cy="236.199" r="90.5" transform="rotate(-9.33279 123.817 236.199)" fill="white" fill-opacity="0.2"/>
<circle cx="123.817" cy="236.199" r="90" transform="rotate(-9.33279 123.817 236.199)" stroke="white" stroke-opacity="0.4"/>
<circle cx="202.678" cy="185.742" r="90.5" transform="rotate(-9.33279 202.678 185.742)" fill="white" fill-opacity="0.2"/>
<circle cx="202.678" cy="185.742" r="90" transform="rotate(-9.33279 202.678 185.742)" stroke="white" stroke-opacity="0.4"/>
<circle cx="308.674" cy="167.816" r="14" transform="rotate(-9.33279 308.674 167.816)" fill="#B10404"/>
<path fill-rule="evenodd" clip-rule="evenodd" d="M312.747 153.749C318.446 154.747 323.155 159.241 324.147 165.273C325.138 171.305 322.115 177.07 317.035 179.839C318.544 180.103 320.123 180.122 321.72 179.859C329.35 178.606 334.518 171.404 333.264 163.774C332.01 156.145 324.809 150.976 317.179 152.23C315.582 152.493 314.092 153.016 312.747 153.749Z" fill="#F89500"/>
<circle cx="293.675" cy="39.5502" r="15" transform="rotate(-9.33279 293.675 39.5502)" fill="white"/>
<path d="M36.1247 71.3375C36.9773 71.1974 37.7682 71.2741 38.4975 71.5677C39.2347 71.8601 39.8234 72.3592 40.2637 73.0651L38.9612 73.2792C38.6504 72.8682 38.2624 72.5793 37.7972 72.4125C37.332 72.2457 36.8271 72.2071 36.2824 72.2966C35.6982 72.3926 35.1914 72.6137 34.7618 72.96C34.3389 73.297 34.0334 73.7323 33.8455 74.2659C33.6654 74.7981 33.6279 75.384 33.733 76.0234C33.8381 76.6628 34.0611 77.2058 34.402 77.6524C34.7509 78.0978 35.1802 78.4164 35.6901 78.6082C36.2078 78.7988 36.7588 78.8461 37.3429 78.7501C37.8876 78.6605 38.3537 78.4623 38.741 78.1555C39.1271 77.8407 39.4016 77.4389 39.5644 76.95L40.867 76.7359C40.6757 77.5456 40.2777 78.2069 39.6729 78.7198C39.0759 79.2314 38.3512 79.5572 37.4986 79.6973C36.7329 79.8232 36.0011 79.761 35.3033 79.5109C34.6042 79.2528 34.0173 78.8385 33.5425 78.268C33.0664 77.6895 32.7628 77.0017 32.6318 76.2044C32.4994 75.3992 32.5669 74.6503 32.8341 73.9578C33.1001 73.2574 33.5235 72.6771 34.1046 72.2167C34.6856 71.7564 35.359 71.4633 36.1247 71.3375ZM43.1281 73.1538C43.3826 72.285 43.9756 71.7741 44.9071 71.621L45.092 72.7459L44.8078 72.7926C44.2552 72.8834 43.8569 73.0989 43.6128 73.439C43.3753 73.7699 43.3149 74.2906 43.4317 75.001L44.0155 78.5534L42.938 78.7305L41.8696 72.2297L42.9471 72.0526L43.1281 73.1538ZM52.6164 73.5281C52.654 73.757 52.6732 73.9727 52.6741 74.1753L47.4995 75.0257C47.6375 75.6678 47.9231 76.1478 48.3564 76.4658C48.7963 76.7745 49.3083 76.8809 49.8925 76.7849C50.3345 76.7123 50.6893 76.5526 50.9569 76.3059C51.2323 76.058 51.4145 75.7605 51.5034 75.4135L52.6638 75.2228C52.552 75.8249 52.274 76.353 51.8297 76.807C51.3934 77.2598 50.7963 77.5484 50.0384 77.673C49.4306 77.7729 48.8632 77.7243 48.3362 77.5271C47.8172 77.3286 47.3819 76.9989 47.0305 76.5378C46.6778 76.0687 46.4469 75.5027 46.338 74.8396C46.2277 74.1686 46.2652 73.5584 46.4506 73.0091C46.6347 72.4519 46.9487 71.9949 47.3927 71.6382C47.8368 71.2814 48.3785 71.0505 49.0179 70.9454C49.6258 70.8455 50.1846 70.8915 50.6945 71.0834C51.2043 71.2752 51.6278 71.5826 51.9648 72.0056C52.3019 72.4285 52.5191 72.936 52.6164 73.5281ZM51.4681 73.5708C51.3994 73.1525 51.2489 72.8042 51.0167 72.5262C50.7833 72.2403 50.495 72.0404 50.152 71.9265C49.8169 71.8113 49.4599 71.7849 49.081 71.8471C48.5205 71.9393 48.0813 72.202 47.7633 72.6353C47.4441 73.0607 47.3173 73.5963 47.3829 74.2422L51.4681 73.5708ZM56.1265 69.7772C56.6791 69.6864 57.182 69.7375 57.6353 69.9305C58.0965 70.1223 58.4681 70.4098 58.75 70.7932L58.1642 67.229L59.2536 67.05L60.6937 75.8124L59.6043 75.9914L59.3863 74.6652C59.2433 75.1265 58.9846 75.5258 58.6103 75.8629C58.2426 76.1909 57.7825 76.4003 57.2299 76.4911C56.6457 76.5871 56.0935 76.5319 55.5731 76.3256C55.0594 76.1101 54.6222 75.7684 54.2616 75.3007C53.9075 74.8238 53.6767 74.2578 53.569 73.6026C53.4613 72.9473 53.5008 72.349 53.6875 71.8076C53.8807 71.257 54.1875 70.8052 54.6079 70.4524C55.0361 70.0983 55.5423 69.8732 56.1265 69.7772ZM56.4697 70.6815C56.0829 70.7451 55.7353 70.8995 55.427 71.1447C55.1266 71.3887 54.9036 71.7091 54.758 72.1059C54.6191 72.4936 54.5898 72.9321 54.6702 73.4216C54.7507 73.911 54.9207 74.329 55.1803 74.6755C55.4465 75.0127 55.7623 75.2568 56.1276 75.4075C56.5008 75.557 56.8808 75.5999 57.2676 75.5364C57.6623 75.4715 58.0092 75.3131 58.3083 75.0613C58.6153 74.8082 58.8377 74.4838 58.9753 74.0883C59.1196 73.6835 59.1515 73.2364 59.0711 72.747C58.9906 72.2575 58.818 71.8481 58.553 71.5187C58.2947 71.1801 57.9796 70.9401 57.6077 70.7985C57.2437 70.6556 56.8644 70.6166 56.4697 70.6815ZM60.931 67.2729C60.8973 67.0676 60.9398 66.8823 61.0586 66.7168C61.1773 66.5514 61.3353 66.4525 61.5327 66.42C61.7379 66.3863 61.9233 66.4288 62.0887 66.5475C62.2542 66.6663 62.3538 66.8283 62.3875 67.0335C62.4212 67.2388 62.3787 67.4241 62.26 67.5896C62.1412 67.755 61.9793 67.8546 61.774 67.8883C61.5688 67.9221 61.3834 67.8796 61.218 67.7608C61.0604 67.6408 60.9648 67.4781 60.931 67.2729ZM62.4781 68.8428L63.5465 75.3436L62.4689 75.5207L61.4006 69.0199L62.4781 68.8428ZM68.2006 73.6788L68.3446 74.555L67.2553 74.7341C66.7027 74.8249 66.2583 74.7601 65.9221 74.5397C65.5938 74.318 65.3823 73.919 65.2876 73.3427L64.6376 69.3878L63.7969 69.526L63.6529 68.6497L64.4936 68.5115L64.2289 66.9011L65.3183 66.7221L65.583 68.3325L67.2644 68.0562L67.4084 68.9324L65.727 69.2088L66.377 73.1637C66.425 73.4558 66.5179 73.6513 66.6558 73.7503C66.7936 73.8492 67.0126 73.874 67.3125 73.8247L68.2006 73.6788ZM75.4758 64.8704C76.3283 64.7303 77.1192 64.807 77.8485 65.1006C78.5857 65.393 79.1744 65.8921 79.6147 66.598L78.3122 66.8121C78.0014 66.4011 77.6134 66.1122 77.1482 65.9454C76.683 65.7786 76.1781 65.74 75.6334 65.8295C75.0492 65.9255 74.5424 66.1466 74.1128 66.4929C73.6899 66.8299 73.3845 67.2652 73.1965 67.7988C73.0164 68.331 72.9789 68.9169 73.084 69.5563C73.1891 70.1957 73.4121 70.7387 73.7531 71.1853C74.1019 71.6307 74.5312 71.9493 75.0411 72.1411C75.5589 72.3317 76.1098 72.379 76.694 72.2829C77.2387 72.1934 77.7047 71.9952 78.0921 71.6884C78.4781 71.3736 78.7526 70.9718 78.9155 70.4829L80.218 70.2688C80.0268 71.0785 79.6288 71.7398 79.0239 72.2527C78.427 72.7643 77.7022 73.0901 76.8497 73.2302C76.0839 73.3561 75.3522 73.2939 74.6544 73.0438C73.9553 72.7857 73.3683 72.3714 72.8935 71.8009C72.4174 71.2224 72.1138 70.5346 71.9828 69.7373C71.8505 68.9321 71.9179 68.1832 72.1851 67.4907C72.4511 66.7903 72.8746 66.2099 73.4556 65.7496C74.0367 65.2893 74.71 64.9962 75.4758 64.8704ZM83.8792 65.2162C84.4318 65.1254 84.9347 65.1765 85.388 65.3695C85.8492 65.5613 86.2208 65.8488 86.5027 66.2322L86.2886 64.9297L87.378 64.7506L88.4464 71.2514L87.357 71.4305L87.139 70.1042C86.996 70.5656 86.7373 70.9648 86.363 71.302C85.9953 71.6299 85.5352 71.8393 84.9826 71.9301C84.3984 72.0261 83.8462 71.971 83.3258 71.7646C82.8121 71.5491 82.3749 71.2074 82.0143 70.7397C81.6602 70.2628 81.4294 69.6968 81.3217 69.0416C81.214 68.3864 81.2535 67.788 81.4402 67.2466C81.6335 66.696 81.9403 66.2442 82.3606 65.8914C82.7888 65.5373 83.295 65.3122 83.8792 65.2162ZM84.2224 66.1205C83.8356 66.1841 83.488 66.3385 83.1797 66.5837C82.8793 66.8277 82.6563 67.1481 82.5107 67.5449C82.3718 67.9326 82.3425 68.3712 82.4229 68.8606C82.5034 69.35 82.6734 69.768 82.933 70.1145C83.1993 70.4518 83.515 70.6958 83.8803 70.8465C84.2535 70.996 84.6335 71.0389 85.0203 70.9754C85.415 70.9105 85.7619 70.7522 86.061 70.5003C86.368 70.2472 86.5904 69.9228 86.728 69.5273C86.8723 69.1225 86.9042 68.6754 86.8238 68.186C86.7434 67.6965 86.5707 67.2871 86.3058 66.9577C86.0474 66.6191 85.7323 66.3791 85.3604 66.2375C84.9965 66.0946 84.6171 66.0556 84.2224 66.1205ZM90.4118 65.383C90.6663 64.5142 91.2593 64.0033 92.1908 63.8502L92.3756 64.9751L92.0915 65.0218C91.5389 65.1127 91.1405 65.3281 90.8965 65.6682C90.659 65.9991 90.5986 66.5198 90.7154 67.2302L91.2992 70.7826L90.2216 70.9597L89.1533 64.4589L90.2308 64.2818L90.4118 65.383ZM96.1713 63.1961C96.7239 63.1052 97.2269 63.1564 97.6802 63.3494C98.1414 63.5411 98.5129 63.8287 98.7948 64.2121L98.2091 60.6479L99.2985 60.4688L100.739 69.2313L99.6491 69.4103L99.4312 68.0841C99.2881 68.5454 99.0294 68.9447 98.6551 69.2818C98.2875 69.6098 97.8273 69.8192 97.2747 69.91C96.6906 70.006 96.1383 69.9508 95.618 69.7445C95.1042 69.5289 94.667 69.1873 94.3064 68.7196C93.9524 68.2427 93.7215 67.6766 93.6139 67.0214C93.5062 66.3662 93.5457 65.7679 93.7323 65.2265C93.9256 64.6758 94.2324 64.2241 94.6527 63.8713C95.081 63.5171 95.5872 63.2921 96.1713 63.1961ZM96.5145 64.1004C96.1277 64.1639 95.7802 64.3183 95.4719 64.5636C95.1714 64.8075 94.9485 65.1279 94.8029 65.5248C94.6639 65.9125 94.6346 66.351 94.7151 66.8405C94.7955 67.3299 94.9655 67.7478 95.2252 68.0943C95.4914 68.4316 95.8071 68.6756 96.1724 68.8264C96.5456 68.9759 96.9256 69.0188 97.3124 68.9552C97.7071 68.8904 98.054 68.732 98.3531 68.4802C98.6602 68.227 98.8825 67.9027 99.0202 67.5071C99.1644 67.1024 99.1964 66.6553 99.1159 66.1658C99.0355 65.6764 98.8628 65.267 98.5979 64.9376C98.3396 64.599 98.0245 64.3589 97.6526 64.2174C97.2886 64.0745 96.9092 64.0355 96.5145 64.1004Z" fill="white"/>
<path d="M58.4049 198.99L54.7578 199.589L54.4142 201.494L53.313 201.675L54.9484 192.979L56.1325 192.784L60.4532 200.502L59.3401 200.685L58.4049 198.99ZM57.9569 198.188L55.7446 194.198L54.9256 198.686L57.9569 198.188ZM68.0793 195.077C68.2181 195.922 68.1645 196.681 67.9183 197.354C67.6709 198.019 67.2501 198.566 66.656 198.996C66.0685 199.417 65.3366 199.699 64.4603 199.843L61.8671 200.27L60.5185 192.064L63.1117 191.637C63.988 191.493 64.7737 191.539 65.4689 191.773C66.1707 191.998 66.7465 192.394 67.1964 192.961C67.6449 193.519 67.9392 194.225 68.0793 195.077ZM64.3241 199.015C65.3582 198.845 66.1009 198.431 66.5522 197.773C67.0035 197.115 67.1455 196.277 66.9781 195.258C66.8107 194.24 66.408 193.491 65.7699 193.013C65.1318 192.534 64.2957 192.379 63.2616 192.549L61.7459 192.798L62.8084 199.264L64.3241 199.015ZM69.981 191.384L70.4403 194.179L73.3532 193.7L73.4914 194.541L70.5785 195.019L71.0494 197.885L74.3176 197.348L74.4577 198.2L70.112 198.915L68.7634 190.709L73.1091 189.994L73.2492 190.847L69.981 191.384ZM82.5793 196.866L81.5018 197.043L76.0976 191.242L77.1679 197.755L76.0904 197.932L74.7418 189.726L75.8193 189.549L81.2235 195.349L80.1532 188.837L81.2307 188.66L82.5793 196.866ZM84.0873 188.19L85.4359 196.396L84.3584 196.573L83.0098 188.367L84.0873 188.19ZM91.5734 186.96L89.7479 192.501L90.2578 195.604L89.1802 195.781L88.6704 192.678L85.1555 188.015L86.3396 187.82L89.0397 191.596L90.3775 187.157L91.5734 186.96ZM93.7198 186.607L95.0684 194.813L93.9909 194.99L92.6423 186.784L93.7198 186.607ZM102.789 185.032C103.554 184.906 104.282 184.969 104.972 185.22C105.67 185.47 106.257 185.885 106.733 186.463C107.208 187.034 107.511 187.721 107.644 188.527C107.775 189.324 107.707 190.073 107.441 190.773C107.175 191.474 106.752 192.058 106.173 192.526C105.6 192.985 104.93 193.278 104.164 193.403C103.399 193.529 102.667 193.467 101.969 193.217C101.27 192.959 100.682 192.541 100.206 191.962C99.7302 191.384 99.4266 190.696 99.2956 189.899C99.1632 189.093 99.2307 188.345 99.4979 187.652C99.7639 186.952 100.187 186.371 100.768 185.911C101.349 185.451 102.023 185.158 102.789 185.032ZM102.946 185.991C102.362 186.087 101.855 186.308 101.426 186.654C101.003 186.991 100.697 187.427 100.509 187.96C100.321 188.494 100.28 189.08 100.385 189.72C100.49 190.359 100.717 190.901 101.066 191.347C101.415 191.792 101.844 192.111 102.354 192.302C102.872 192.493 103.423 192.54 104.007 192.444C104.591 192.348 105.094 192.128 105.515 191.783C105.937 191.438 106.238 190.999 106.418 190.467C106.606 189.934 106.647 189.347 106.542 188.708C106.437 188.068 106.21 187.526 105.861 187.08C105.521 186.634 105.096 186.319 104.587 186.135C104.077 185.943 103.53 185.895 102.946 185.991ZM110.601 191.409L113.478 190.936L113.615 191.765L109.66 192.415L108.311 184.209L109.389 184.032L110.601 191.409ZM119.461 188.956L115.814 189.555L115.47 191.46L114.369 191.641L116.004 182.945L117.188 182.75L121.509 190.468L120.396 190.651L119.461 188.956ZM119.013 188.154L116.801 184.164L115.982 188.652L119.013 188.154ZM129.946 180.654L131.295 188.86L130.205 189.039L129.223 183.059L127.458 189.49L126.76 189.605L123.018 184.079L124.001 190.058L122.923 190.235L121.574 182.029L122.676 181.849L126.872 188.066L128.845 180.835L129.946 180.654ZM132.805 180.184L134.153 188.39L133.076 188.567L131.727 180.361L132.805 180.184ZM142.144 182.905C142.283 183.75 142.23 184.509 141.983 185.182C141.736 185.846 141.315 186.394 140.721 186.824C140.133 187.245 139.402 187.527 138.525 187.671L135.932 188.097L134.584 179.892L137.177 179.465C138.053 179.321 138.839 179.367 139.534 179.601C140.236 179.826 140.812 180.222 141.261 180.788C141.71 181.347 142.004 182.053 142.144 182.905ZM138.389 186.842C139.423 186.672 140.166 186.259 140.617 185.601C141.069 184.943 141.211 184.105 141.043 183.086C140.876 182.068 140.473 181.319 139.835 180.84C139.197 180.362 138.361 180.207 137.327 180.377L135.811 180.626L136.873 187.091L138.389 186.842ZM144.046 179.212L144.505 182.007L147.418 181.528L147.556 182.369L144.644 182.847L145.114 185.713L148.383 185.176L148.523 186.028L144.177 186.742L142.828 178.537L147.174 177.822L147.314 178.675L144.046 179.212ZM156.643 176.266L157.64 182.329C157.751 183.008 157.631 183.583 157.279 184.054C156.927 184.526 156.407 184.818 155.72 184.931C155.033 185.043 154.444 184.934 153.951 184.601C153.467 184.267 153.169 183.761 153.057 183.082L154.158 182.901C154.229 183.279 154.378 183.57 154.606 183.776C154.843 183.98 155.162 184.049 155.565 183.983C155.975 183.916 156.26 183.747 156.418 183.478C156.575 183.201 156.623 182.877 156.562 182.506L155.566 176.443L156.643 176.266ZM162.63 175.197C163.396 175.071 164.124 175.134 164.814 175.385C165.512 175.636 166.099 176.05 166.575 176.628C167.049 177.199 167.353 177.887 167.485 178.692C167.616 179.489 167.549 180.238 167.283 180.939C167.017 181.639 166.594 182.223 166.014 182.691C165.441 183.151 164.772 183.443 164.006 183.569C163.24 183.695 162.509 183.632 161.811 183.382C161.112 183.124 160.524 182.706 160.048 182.128C159.572 181.549 159.268 180.861 159.137 180.064C159.005 179.259 159.072 178.51 159.34 177.817C159.606 177.117 160.029 176.537 160.61 176.076C161.191 175.616 161.865 175.323 162.63 175.197ZM162.788 176.156C162.204 176.252 161.697 176.473 161.267 176.82C160.844 177.157 160.539 177.592 160.351 178.125C160.163 178.659 160.122 179.245 160.227 179.885C160.332 180.524 160.559 181.067 160.908 181.512C161.256 181.957 161.686 182.276 162.196 182.468C162.713 182.658 163.264 182.706 163.849 182.61C164.433 182.514 164.936 182.293 165.357 181.948C165.779 181.603 166.08 181.165 166.26 180.632C166.448 180.099 166.489 179.512 166.384 178.873C166.279 178.234 166.052 177.691 165.703 177.246C165.362 176.799 164.938 176.484 164.429 176.3C163.919 176.108 163.372 176.06 162.788 176.156ZM175.99 181.514L174.913 181.691L169.509 175.891L170.579 182.403L169.501 182.581L168.153 174.375L169.23 174.198L174.634 179.998L173.564 173.485L174.642 173.308L175.99 181.514ZM182.494 178.597L178.847 179.196L178.504 181.101L177.402 181.282L179.038 172.586L180.222 172.391L184.543 180.109L183.429 180.292L182.494 178.597ZM182.046 177.795L179.834 173.805L179.015 178.293L182.046 177.795ZM189.652 170.841L189.794 171.706L187.627 172.062L188.834 179.403L187.756 179.58L186.55 172.239L184.383 172.595L184.241 171.731L189.652 170.841ZM197.371 169.573L198.72 177.779L197.631 177.958L197.021 174.251L192.889 174.931L193.498 178.637L192.42 178.814L191.072 170.608L192.149 170.431L192.749 174.078L196.881 173.399L196.282 169.752L197.371 169.573ZM205.217 174.862L201.57 175.462L201.226 177.367L200.125 177.548L201.76 168.851L202.944 168.657L207.265 176.374L206.152 176.557L205.217 174.862ZM204.769 174.061L202.556 170.07L201.737 174.559L204.769 174.061ZM215.168 175.076L214.09 175.253L208.686 169.452L209.756 175.965L208.679 176.142L207.33 167.936L208.408 167.759L213.812 173.559L212.742 167.047L213.819 166.87L215.168 175.076Z" fill="white"/>
<path d="M58.3341 206.477C59.2103 206.333 60.0235 206.422 60.7738 206.745C61.5306 207.058 62.1279 207.584 62.5655 208.323L60.9432 208.589C60.6626 208.214 60.316 207.955 59.9034 207.812C59.4894 207.661 59.0338 207.626 58.5364 207.708C57.9917 207.798 57.5264 208 57.1403 208.315C56.7542 208.629 56.4758 209.032 56.3051 209.522C56.1422 210.011 56.1094 210.551 56.2067 211.143C56.304 211.735 56.5087 212.241 56.8208 212.66C57.1394 213.07 57.532 213.362 57.9985 213.537C58.465 213.711 58.9706 213.754 59.5153 213.664C60.0126 213.582 60.4339 213.408 60.7791 213.14C61.123 212.865 61.3677 212.504 61.5134 212.059L63.1357 211.792C62.9575 212.632 62.5601 213.322 61.9434 213.861C61.3345 214.399 60.592 214.74 59.7157 214.884C58.9421 215.011 58.2064 214.95 57.5086 214.699C56.8095 214.441 56.2179 214.024 55.7339 213.447C55.2578 212.868 54.9536 212.176 54.8213 211.371C54.689 210.566 54.7558 209.813 55.0217 209.113C55.2955 208.411 55.723 207.83 56.304 207.37C56.8916 206.9 57.5683 206.602 58.3341 206.477ZM66.6478 206.862C67.1609 206.777 67.6303 206.822 68.056 206.995C68.4884 207.159 68.8422 207.413 69.1177 207.757L68.9269 206.596L70.2887 206.373L71.3609 212.897L69.9992 213.121L69.7988 211.901C69.6439 212.34 69.3932 212.714 69.0466 213.022C68.6987 213.322 68.2682 213.515 67.7551 213.599C67.1867 213.693 66.6423 213.636 66.122 213.43C65.6082 213.214 65.171 212.873 64.8104 212.405C64.4564 211.928 64.2255 211.362 64.1178 210.707C64.0102 210.051 64.049 209.449 64.2344 208.9C64.4276 208.349 64.7344 207.898 65.1548 207.545C65.5817 207.183 66.0794 206.955 66.6478 206.862ZM67.1246 207.987C66.7773 208.044 66.4679 208.184 66.1965 208.407C65.9237 208.622 65.7199 208.911 65.5849 209.274C65.4565 209.627 65.4293 210.029 65.5033 210.479C65.5772 210.929 65.7329 211.309 65.9702 211.618C66.2155 211.927 66.503 212.147 66.8328 212.279C67.1692 212.402 67.5071 212.436 67.8466 212.38C68.1939 212.323 68.5033 212.183 68.7747 211.96C69.0462 211.737 69.2454 211.445 69.3725 211.084C69.5062 210.713 69.536 210.303 69.4621 209.853C69.3882 209.403 69.2292 209.028 68.9853 208.727C68.7492 208.425 68.4669 208.212 68.1384 208.088C67.8099 207.964 67.472 207.93 67.1246 207.987ZM73.5984 206.996C73.7309 206.569 73.9415 206.222 74.2301 205.956C74.5253 205.68 74.8979 205.506 75.3479 205.432L75.5775 206.829L75.2341 206.885C74.7052 206.972 74.3247 207.173 74.0925 207.486C73.8682 207.799 73.8105 208.287 73.9195 208.95L74.4839 212.384L73.134 212.606L72.0617 206.081L73.4116 205.859L73.5984 206.996ZM79.2174 204.796C79.7306 204.711 80.2 204.756 80.6257 204.929C81.058 205.093 81.4119 205.347 81.6873 205.691L81.1288 202.293L82.4905 202.069L83.9306 210.831L82.5689 211.055L82.3684 209.835C82.2136 210.274 81.9628 210.648 81.6162 210.956C81.2683 211.257 80.8378 211.449 80.3247 211.533C79.7563 211.627 79.212 211.57 78.6916 211.364C78.1779 211.148 77.7407 210.807 77.3801 210.339C77.026 209.862 76.7952 209.296 76.6875 208.641C76.5798 207.986 76.6187 207.383 76.804 206.834C76.9973 206.283 77.3041 205.832 77.7245 205.479C78.1514 205.117 78.6491 204.889 79.2174 204.796ZM79.6943 205.921C79.3469 205.978 79.0375 206.118 78.7661 206.341C78.4934 206.556 78.2895 206.845 78.1546 207.208C78.0262 207.562 77.999 207.963 78.0729 208.413C78.1469 208.863 78.3025 209.243 78.5399 209.553C78.7851 209.861 79.0726 210.081 79.4025 210.213C79.7389 210.337 80.0768 210.37 80.4163 210.314C80.7636 210.257 81.073 210.117 81.3444 209.894C81.6158 209.671 81.8151 209.379 81.9422 209.018C82.0759 208.647 82.1057 208.237 82.0318 207.787C81.9578 207.337 81.7989 206.962 81.5549 206.661C81.3189 206.36 81.0366 206.147 80.7081 206.022C80.3795 205.898 80.0416 205.864 79.6943 205.921ZM88.0478 203.345C88.5214 203.267 88.9652 203.303 89.3792 203.454C89.801 203.604 90.1568 203.869 90.4466 204.252C90.7443 204.632 90.9418 205.119 91.0391 205.711L91.6716 209.559L90.3335 209.779L89.7341 206.132C89.6381 205.548 89.4188 205.126 89.0761 204.866C88.7321 204.598 88.3075 204.506 87.8023 204.589C87.2971 204.672 86.9204 204.896 86.6724 205.261C86.4309 205.617 86.3581 206.087 86.4541 206.671L87.0535 210.318L85.7036 210.54L84.2636 201.777L85.6135 201.556L86.1506 204.824C86.3027 204.418 86.5409 204.091 86.865 203.843C87.1957 203.586 87.5899 203.42 88.0478 203.345ZM95.1929 202.17C95.8165 202.068 96.4037 202.113 96.9543 202.306C97.5049 202.5 97.9685 202.829 98.3449 203.294C98.7213 203.759 98.964 204.323 99.0729 204.986C99.1819 205.649 99.1286 206.262 98.9129 206.825C98.6973 207.387 98.3523 207.853 97.878 208.223C97.4103 208.584 96.8646 208.815 96.241 208.918C95.6253 209.019 95.046 208.972 94.5033 208.778C93.9592 208.575 93.5036 208.245 93.1364 207.786C92.7679 207.32 92.5285 206.751 92.4182 206.08C92.3092 205.417 92.3586 204.805 92.5664 204.244C92.7741 203.683 93.1079 203.222 93.5677 202.863C94.0276 202.504 94.5693 202.273 95.1929 202.17ZM95.356 203.311C95.0087 203.368 94.7033 203.507 94.4397 203.729C94.1749 203.943 93.9796 204.234 93.8538 204.604C93.7346 204.964 93.714 205.381 93.7918 205.854C93.8696 206.328 94.0193 206.721 94.2409 207.033C94.4704 207.344 94.7414 207.563 95.0542 207.69C95.3735 207.808 95.7068 207.838 96.0542 207.781C96.4015 207.724 96.7109 207.584 96.9823 207.361C97.2617 207.137 97.4688 206.843 97.6038 206.48C97.7375 206.11 97.7654 205.688 97.6875 205.214C97.6097 204.74 97.4527 204.353 97.2167 204.051C96.9793 203.741 96.6971 203.528 96.3698 203.412C96.0413 203.288 95.7034 203.254 95.356 203.311ZM100.854 199.051L102.294 207.813L100.944 208.035L99.5044 199.273L100.854 199.051ZM105.606 200.459C106.119 200.375 106.588 200.419 107.014 200.592C107.446 200.756 107.8 201.01 108.076 201.354L107.517 197.956L108.879 197.732L110.319 206.495L108.957 206.718L108.757 205.499C108.602 205.938 108.351 206.311 108.004 206.62C107.657 206.92 107.226 207.112 106.713 207.197C106.145 207.29 105.6 207.234 105.08 207.027C104.566 206.812 104.129 206.47 103.768 206.002C103.414 205.525 103.183 204.959 103.076 204.304C102.968 203.649 103.007 203.047 103.192 202.497C103.386 201.947 103.692 201.495 104.113 201.142C104.54 200.78 105.037 200.552 105.606 200.459ZM106.082 201.585C105.735 201.642 105.426 201.782 105.154 202.005C104.882 202.22 104.678 202.509 104.543 202.871C104.414 203.225 104.387 203.627 104.461 204.077C104.535 204.526 104.691 204.906 104.928 205.216C105.173 205.524 105.461 205.744 105.791 205.877C106.127 206 106.465 206.033 106.804 205.978C107.152 205.921 107.461 205.781 107.733 205.558C108.004 205.335 108.203 205.042 108.33 204.681C108.464 204.31 108.494 203.9 108.42 203.45C108.346 203 108.187 202.625 107.943 202.325C107.707 202.023 107.425 201.81 107.096 201.686C106.768 201.561 106.43 201.528 106.082 201.585ZM117.505 201.775C117.543 202.004 117.562 202.219 117.563 202.422L112.566 203.243C112.687 203.783 112.94 204.187 113.325 204.456C113.716 204.716 114.164 204.805 114.67 204.722C115.404 204.601 115.871 204.212 116.071 203.555L117.527 203.315C117.429 203.948 117.151 204.5 116.693 204.973C116.234 205.437 115.622 205.732 114.856 205.858C114.233 205.961 113.658 205.913 113.131 205.716C112.602 205.511 112.159 205.179 111.799 204.719C111.447 204.25 111.215 203.68 111.105 203.009C110.994 202.338 111.032 201.728 111.217 201.179C111.409 200.62 111.727 200.162 112.171 199.806C112.623 199.448 113.169 199.216 113.808 199.111C114.424 199.01 114.995 199.054 115.52 199.243C116.046 199.432 116.483 199.746 116.83 200.183C117.178 200.621 117.403 201.151 117.505 201.775ZM116.05 201.722C115.953 201.187 115.706 200.789 115.306 200.531C114.906 200.264 114.449 200.173 113.936 200.257C113.454 200.337 113.071 200.566 112.784 200.945C112.505 201.316 112.385 201.773 112.426 202.318L116.05 201.722ZM119.864 199.393C119.997 198.965 120.208 198.619 120.496 198.352C120.791 198.077 121.164 197.902 121.614 197.828L121.844 199.225L121.5 199.282C120.971 199.369 120.591 199.569 120.359 199.883C120.134 200.195 120.077 200.683 120.186 201.346L120.75 204.78L119.4 205.002L118.328 198.478L119.678 198.256L119.864 199.393Z" fill="white"/>
<path d="M259.285 89.3341L259.744 92.1287L262.657 91.6499L262.796 92.4907L259.883 92.9694L260.354 95.8349L263.622 95.2978L263.762 96.1504L259.416 96.8646L258.068 88.6587L262.413 87.9445L262.553 88.797L259.285 89.3341ZM267.393 92.2093L270.013 95.1231L268.793 95.3236L266.857 93.161L265.821 95.812L264.649 96.0047L266.215 92.4394L263.58 89.5039L264.8 89.3034L266.75 91.4759L267.796 88.8111L268.956 88.6204L267.393 92.2093ZM273.445 87.7733C274.029 87.6773 274.576 87.7291 275.088 87.9289C275.607 88.1273 276.042 88.4571 276.393 88.9182C276.751 89.3702 276.984 89.9237 277.092 90.5789C277.2 91.2342 277.158 91.845 276.967 92.4114C276.783 92.9686 276.478 93.4322 276.053 93.8021C275.634 94.1628 275.132 94.3912 274.548 94.4872C273.995 94.578 273.488 94.5276 273.027 94.3358C272.573 94.1349 272.2 93.8394 271.909 93.4495L272.633 97.8544L271.555 98.0315L269.981 88.452L271.058 88.2749L271.272 89.5774C271.425 89.1227 271.685 88.7314 272.052 88.4034C272.428 88.0741 272.892 87.8641 273.445 87.7733ZM273.385 88.7438C272.998 88.8073 272.651 88.9657 272.344 89.2188C272.045 89.4707 271.824 89.799 271.679 90.2037C271.542 90.5993 271.513 91.0418 271.593 91.5312C271.674 92.0206 271.843 92.4347 272.102 92.7732C272.367 93.1026 272.681 93.3388 273.045 93.4816C273.417 93.6232 273.796 93.6622 274.183 93.5986C274.57 93.5351 274.917 93.3767 275.224 93.1236C275.529 92.8625 275.75 92.5263 275.885 92.115C276.028 91.7023 276.059 91.2513 275.979 90.7619C275.898 90.2724 275.726 89.867 275.463 89.5455C275.206 89.2148 274.892 88.9826 274.521 88.8489C274.159 88.7139 273.78 88.6789 273.385 88.7438ZM277.444 85.4013C277.41 85.1961 277.453 85.0107 277.571 84.8453C277.69 84.6798 277.848 84.5809 278.046 84.5485C278.251 84.5147 278.436 84.5572 278.602 84.676C278.767 84.7947 278.867 84.9567 278.9 85.1619C278.934 85.3672 278.892 85.5525 278.773 85.718C278.654 85.8834 278.492 85.983 278.287 86.0168C278.082 86.0505 277.896 86.008 277.731 85.8892C277.573 85.7692 277.478 85.6066 277.444 85.4013ZM278.991 86.9712L280.059 93.472L278.982 93.6491L277.913 87.1483L278.991 86.9712ZM282.028 87.603C282.283 86.7343 282.876 86.2233 283.807 86.0702L283.992 87.1952L283.708 87.2419C283.155 87.3327 282.757 87.5481 282.513 87.8882C282.275 88.2191 282.215 88.7398 282.332 89.4503L282.916 93.0026L281.838 93.1797L280.77 86.6789L281.847 86.5018L282.028 87.603ZM285.567 85.8904L288.421 90.821L289.581 85.2307L290.694 85.0478L288.344 95.2359L287.23 95.4188L288.004 92.057L284.383 86.085L285.567 85.8904ZM297.929 83.7494C298.482 83.6586 298.985 83.7097 299.438 83.9027C299.899 84.0945 300.271 84.382 300.553 84.7654L299.967 81.2012L301.056 81.0222L302.496 89.7846L301.407 89.9637L301.189 88.6375C301.046 89.0988 300.787 89.498 300.413 89.8352C300.045 90.1631 299.585 90.3725 299.032 90.4633C298.448 90.5593 297.896 90.5042 297.376 90.2978C296.862 90.0823 296.425 89.7407 296.064 89.273C295.71 88.7961 295.479 88.23 295.372 87.5748C295.264 86.9196 295.303 86.3212 295.49 85.7798C295.683 85.2292 295.99 84.7774 296.41 84.4246C296.839 84.0705 297.345 83.8454 297.929 83.7494ZM298.272 84.6537C297.885 84.7173 297.538 84.8717 297.23 85.1169C296.929 85.3609 296.706 85.6813 296.561 86.0782C296.422 86.4658 296.392 86.9044 296.473 87.3938C296.553 87.8832 296.723 88.3012 296.983 88.6477C297.249 88.985 297.565 89.229 297.93 89.3798C298.303 89.5292 298.683 89.5722 299.07 89.5086C299.465 89.4437 299.812 89.2854 300.111 89.0335C300.418 88.7804 300.64 88.456 300.778 88.0605C300.922 87.6557 300.954 87.2086 300.874 86.7192C300.793 86.2298 300.62 85.8203 300.356 85.4909C300.097 85.1524 299.782 84.9123 299.41 84.7707C299.046 84.6278 298.667 84.5889 298.272 84.6537ZM305.862 82.4457C306.414 82.3549 306.917 82.406 307.371 82.5991C307.832 82.7908 308.203 83.0784 308.485 83.4617L308.271 82.1592L309.36 81.9802L310.429 88.481L309.339 88.66L309.122 87.3338C308.978 87.7951 308.72 88.1943 308.345 88.5315C307.978 88.8595 307.518 89.0688 306.965 89.1597C306.381 89.2557 305.829 89.2005 305.308 88.9941C304.795 88.7786 304.357 88.437 303.997 87.9693C303.643 87.4924 303.412 86.9263 303.304 86.2711C303.196 85.6159 303.236 85.0176 303.423 84.4761C303.616 83.9255 303.923 83.4738 304.343 83.1209C304.771 82.7668 305.277 82.5417 305.862 82.4457ZM306.205 83.35C305.818 83.4136 305.47 83.568 305.162 83.8133C304.862 84.0572 304.639 84.3776 304.493 84.7745C304.354 85.1621 304.325 85.6007 304.405 86.0901C304.486 86.5796 304.656 86.9975 304.915 87.344C305.182 87.6813 305.497 87.9253 305.863 88.0761C306.236 88.2255 306.616 88.2685 307.003 88.2049C307.397 88.14 307.744 87.9817 308.043 87.7298C308.35 87.4767 308.573 87.1524 308.71 86.7568C308.855 86.352 308.887 85.9049 308.806 85.4155C308.726 84.9261 308.553 84.5167 308.288 84.1873C308.03 83.8487 307.715 83.6086 307.343 83.467C306.979 83.3242 306.6 83.2852 306.205 83.35ZM315.08 86.8167L315.224 87.693L314.134 87.872C313.582 87.9628 313.137 87.898 312.801 87.6776C312.473 87.4559 312.261 87.057 312.167 86.4807L311.517 82.5257L310.676 82.6639L310.532 81.7877L311.373 81.6495L311.108 80.0391L312.197 79.8601L312.462 81.4705L314.143 81.1941L314.287 82.0704L312.606 82.3467L313.256 86.3016C313.304 86.5937 313.397 86.7892 313.535 86.8882C313.673 86.9871 313.892 87.012 314.191 86.9627L315.08 86.8167ZM321.732 83.0115C321.77 83.2404 321.789 83.4562 321.79 83.6587L316.615 84.5091C316.753 85.1513 317.039 85.6313 317.472 85.9492C317.912 86.258 318.424 86.3644 319.008 86.2684C319.45 86.1957 319.805 86.0361 320.073 85.7894C320.348 85.5414 320.53 85.244 320.619 84.897L321.78 84.7062C321.668 85.3084 321.39 85.8364 320.946 86.2905C320.509 86.7432 319.912 87.0319 319.154 87.1564C318.546 87.2563 317.979 87.2077 317.452 87.0106C316.933 86.8121 316.498 86.4823 316.146 86.0212C315.794 85.5522 315.563 84.9861 315.454 84.323C315.343 83.652 315.381 83.0419 315.566 82.4925C315.75 81.9353 316.065 81.4783 316.509 81.1216C316.953 80.7649 317.494 80.534 318.134 80.4289C318.742 80.329 319.3 80.375 319.81 80.5668C320.32 80.7587 320.744 81.0661 321.081 81.489C321.418 81.912 321.635 82.4195 321.732 83.0115ZM320.584 83.0543C320.515 82.6359 320.365 82.2877 320.133 82.0097C319.899 81.7237 319.611 81.5238 319.268 81.41C318.933 81.2948 318.576 81.2683 318.197 81.3306C317.636 81.4227 317.197 81.6854 316.879 82.1187C316.56 82.5441 316.433 83.0798 316.499 83.7257L320.584 83.0543Z" fill="white"/>
<path d="M260.19 103.276L260.032 102.317L262.057 101.984L263.439 110.391L262.385 110.564L261.161 103.116L260.19 103.276ZM265.12 109.203C265.444 108.809 265.688 108.518 265.852 108.329C266.536 107.511 267.071 106.843 267.456 106.326C267.849 105.807 268.16 105.282 268.389 104.75C268.617 104.21 268.692 103.707 268.615 103.241C268.534 102.744 268.338 102.367 268.028 102.109C267.726 101.851 267.295 101.768 266.735 101.86C266.198 101.948 265.811 102.186 265.575 102.573C265.337 102.953 265.252 103.421 265.319 103.977L264.289 104.147C264.175 103.257 264.328 102.535 264.748 101.98C265.174 101.415 265.782 101.068 266.571 100.938C267.384 100.805 268.069 100.927 268.626 101.306C269.189 101.675 269.535 102.251 269.663 103.032C269.757 103.601 269.69 104.183 269.464 104.78C269.245 105.367 268.954 105.918 268.592 106.431C268.238 106.935 267.786 107.52 267.239 108.186C266.874 108.627 266.708 108.828 266.743 108.79L270.769 108.129L270.918 109.04L265.246 109.973L265.12 109.203ZM274.896 97.0527L273.828 110.751L272.762 110.926L273.831 97.2278L274.896 97.0527ZM278.36 107.027C278.685 106.633 278.929 106.342 279.092 106.153C279.777 105.335 280.312 104.667 280.697 104.15C281.09 103.631 281.401 103.106 281.629 102.574C281.857 102.034 281.932 101.531 281.856 101.065C281.774 100.568 281.578 100.191 281.268 99.9335C280.967 99.675 280.535 99.5918 279.975 99.6839C279.438 99.7722 279.052 100.01 278.815 100.397C278.578 100.777 278.492 101.245 278.56 101.801L277.529 101.971C277.416 101.081 277.569 100.359 277.988 99.8037C278.414 99.2392 279.022 98.892 279.811 98.7623C280.624 98.6286 281.309 98.7512 281.866 99.1299C282.429 99.4994 282.775 100.075 282.904 100.856C282.997 101.425 282.931 102.007 282.705 102.604C282.485 103.191 282.194 103.742 281.833 104.255C281.478 104.759 281.027 105.344 280.479 106.01C280.114 106.451 279.949 106.652 279.983 106.614L284.009 105.953L284.159 106.864L278.487 107.797L278.36 107.027ZM284.918 104.891L284.793 104.133L287.905 97.6144L289.279 97.3887L290.213 103.072L291.362 102.884L291.514 103.807L290.365 103.996L290.68 105.914L289.638 106.086L289.323 104.167L284.918 104.891ZM288.436 98.5488L286.021 103.761L289.207 103.238L288.436 98.5488Z" fill="white"/>
<path d="M46.7612 126.981L47.5795 128.014L45.4619 129.238L47.8598 129.719L47.4176 130.976L45.2869 129.85L45.9945 132.182L44.6999 132.395L44.5923 129.964L42.9074 131.749L42.0497 130.674L44.1515 129.453L41.7695 128.969L42.2432 127.707L44.408 128.843L43.7295 126.49L45.0241 126.278L45.1027 128.729L46.7612 126.981ZM54.532 125.704L55.3503 126.737L53.2327 127.961L55.6305 128.442L55.1884 129.698L53.0577 128.573L53.7653 130.905L52.4706 131.118L52.363 128.687L50.6782 130.472L49.8205 129.397L51.9223 128.176L49.5402 127.692L50.0139 126.43L52.1788 127.566L51.5002 125.213L52.7949 125L52.8735 127.452L54.532 125.704ZM62.3027 124.427L63.1211 125.46L61.0035 126.684L63.4013 127.165L62.9592 128.421L60.8285 127.296L61.536 129.628L60.2414 129.841L60.1338 127.41L58.4489 129.195L57.5912 128.12L59.693 126.899L57.311 126.415L57.7847 125.153L59.9496 126.289L59.271 123.936L60.5656 123.723L60.6442 126.175L62.3027 124.427ZM70.0735 123.15L70.8918 124.183L68.7742 125.406L71.172 125.888L70.7299 127.144L68.5992 126.019L69.3068 128.351L68.0122 128.564L67.9045 126.133L66.2197 127.918L65.362 126.843L67.4638 125.622L65.0818 125.138L65.5554 123.876L67.7203 125.012L67.0417 122.659L68.3364 122.446L68.415 124.898L70.0735 123.15Z" fill="white"/>
<path d="M89.192 120.008L90.0104 121.041L87.8928 122.264L90.2906 122.746L89.8485 124.002L87.7178 122.877L88.4253 125.209L87.1307 125.422L87.0231 122.991L85.3382 124.776L84.4805 123.701L86.5823 122.48L84.2003 121.996L84.674 120.734L86.8389 121.87L86.1603 119.517L87.4549 119.304L87.5335 121.756L89.192 120.008ZM96.9628 118.731L97.7811 119.764L95.6635 120.987L98.0613 121.469L97.6192 122.725L95.4885 121.6L96.1961 123.932L94.9015 124.145L94.7938 121.714L93.109 123.499L92.2513 122.424L94.3531 121.203L91.9711 120.719L92.4447 119.457L94.6096 120.593L93.931 118.24L95.2257 118.027L95.3043 120.479L96.9628 118.731ZM104.734 117.454L105.552 118.487L103.434 119.71L105.832 120.192L105.39 121.448L103.259 120.323L103.967 122.655L102.672 122.868L102.565 120.437L100.88 122.222L100.022 121.147L102.124 119.926L99.7418 119.442L100.216 118.18L102.38 119.316L101.702 116.963L102.996 116.75L103.075 119.202L104.734 117.454ZM112.504 116.177L113.323 117.21L111.205 118.433L113.603 118.915L113.161 120.171L111.03 119.046L111.738 121.378L110.443 121.591L110.335 119.16L108.651 120.945L107.793 119.87L109.895 118.649L107.513 118.164L107.986 116.903L110.151 118.039L109.473 115.686L110.767 115.473L110.846 117.925L112.504 116.177Z" fill="white"/>
<path d="M131.623 113.035L132.441 114.068L130.324 115.291L132.721 115.773L132.279 117.029L130.149 115.904L130.856 118.236L129.562 118.449L129.454 116.018L127.769 117.803L126.911 116.728L129.013 115.507L126.631 115.022L127.105 113.761L129.27 114.897L128.591 112.544L129.886 112.331L129.964 114.783L131.623 113.035ZM139.394 111.758L140.212 112.791L138.094 114.014L140.492 114.496L140.05 115.752L137.919 114.627L138.627 116.959L137.332 117.172L137.225 114.741L135.54 116.526L134.682 115.451L136.784 114.23L134.402 113.745L134.876 112.484L137.04 113.62L136.362 111.267L137.656 111.054L137.735 113.506L139.394 111.758ZM147.164 110.481L147.983 111.513L145.865 112.737L148.263 113.219L147.821 114.475L145.69 113.35L146.398 115.682L145.103 115.894L144.995 113.464L143.311 115.249L142.453 114.173L144.555 112.952L142.173 112.468L142.646 111.207L144.811 112.343L144.133 109.99L145.427 109.777L145.506 112.229L147.164 110.481ZM154.935 109.203L155.753 110.236L153.636 111.46L156.034 111.942L155.592 113.198L153.461 112.073L154.168 114.405L152.874 114.617L152.766 112.187L151.081 113.972L150.224 112.896L152.325 111.675L149.943 111.191L150.417 109.93L152.582 111.066L151.903 108.713L153.198 108.5L153.277 110.952L154.935 109.203Z" fill="white"/>
<path d="M168.895 107.623L168.684 106.344L171.384 105.9L173.226 117.11L171.821 117.341L170.189 107.41L168.895 107.623ZM181.344 105.204L175.834 106.109L176.428 109.725C176.602 109.339 176.907 108.992 177.343 108.683C177.778 108.373 178.27 108.174 178.817 108.084C179.691 107.94 180.432 108.013 181.042 108.302C181.66 108.578 182.134 108.993 182.462 109.544C182.8 110.083 183.022 110.679 183.129 111.331C183.324 112.521 183.153 113.549 182.614 114.416C182.074 115.272 181.167 115.805 179.894 116.014C178.778 116.197 177.832 116.066 177.056 115.621C176.291 115.174 175.749 114.506 175.43 113.618L176.804 113.393C177.044 113.937 177.418 114.335 177.924 114.587C178.441 114.837 179.031 114.907 179.694 114.798C180.536 114.66 181.126 114.304 181.464 113.729C181.812 113.153 181.917 112.444 181.779 111.602C181.637 110.739 181.313 110.116 180.807 109.735C180.31 109.341 179.641 109.213 178.799 109.351C178.23 109.445 177.765 109.673 177.403 110.035C177.041 110.397 176.801 110.847 176.684 111.385L175.374 111.601L174.302 105.08L181.139 103.957L181.344 105.204ZM190.747 105.02C190.52 104.496 190.217 104.129 189.837 103.922C189.457 103.714 188.956 103.661 188.335 103.763C187.704 103.867 187.207 104.1 186.845 104.462C186.493 104.822 186.268 105.357 186.168 106.065C186.066 106.763 186.098 107.676 186.262 108.806C186.461 108.244 186.816 107.774 187.327 107.399C187.837 107.012 188.434 106.763 189.118 106.65C189.812 106.536 190.448 106.588 191.024 106.807C191.611 107.024 192.099 107.393 192.487 107.913C192.886 108.431 193.15 109.085 193.28 109.874C193.399 110.6 193.364 111.276 193.175 111.902C192.997 112.526 192.656 113.052 192.154 113.48C191.651 113.909 190.995 114.19 190.184 114.323C189.079 114.505 188.18 114.393 187.486 113.988C186.803 113.581 186.279 112.959 185.915 112.122C185.55 111.285 185.261 110.219 185.049 108.924C184.751 107.114 184.847 105.655 185.335 104.548C185.823 103.441 186.757 102.774 188.135 102.547C188.82 102.435 189.431 102.47 189.969 102.651C190.505 102.823 190.945 103.102 191.29 103.488C191.643 103.863 191.894 104.302 192.042 104.808L190.747 105.02ZM186.812 110.872C186.947 111.693 187.28 112.308 187.813 112.718C188.345 113.128 189.048 113.261 189.921 113.118C190.669 112.995 191.221 112.672 191.578 112.148C191.944 111.612 192.063 110.955 191.935 110.176C191.798 109.345 191.481 108.732 190.984 108.338C190.496 107.932 189.841 107.796 189.02 107.931C188.568 108.005 188.157 108.17 187.788 108.425C187.417 108.67 187.137 109.003 186.947 109.423C186.765 109.831 186.72 110.314 186.812 110.872ZM194.797 104.549C194.702 103.971 194.758 103.426 194.967 102.916C195.173 102.396 195.533 101.953 196.045 101.588C196.558 101.222 197.209 100.975 197.999 100.845C198.799 100.714 199.5 100.739 200.103 100.921C200.706 101.103 201.183 101.408 201.534 101.837C201.896 102.264 202.125 102.767 202.22 103.346C202.321 103.956 202.251 104.519 202.011 105.034C201.77 105.538 201.415 105.943 200.946 106.247C201.579 106.348 202.122 106.632 202.577 107.097C203.03 107.553 203.317 108.143 203.436 108.87C203.552 109.575 203.486 110.224 203.237 110.816C202.987 111.397 202.58 111.88 202.016 112.265C201.463 112.648 200.791 112.904 200.002 113.034C199.213 113.163 198.489 113.136 197.832 112.953C197.185 112.767 196.65 112.439 196.227 111.968C195.802 111.486 195.532 110.893 195.416 110.188C195.296 109.462 195.378 108.81 195.662 108.234C195.944 107.647 196.374 107.204 196.951 106.903C196.373 106.739 195.895 106.461 195.517 106.069C195.139 105.677 194.899 105.17 194.797 104.549ZM196.181 104.484C196.274 105.053 196.568 105.491 197.062 105.799C197.564 106.094 198.163 106.185 198.858 106.071C199.552 105.957 200.085 105.68 200.456 105.241C200.836 104.789 200.979 104.279 200.886 103.711C200.779 103.058 200.486 102.593 200.008 102.315C199.538 102.024 198.935 101.94 198.199 102.061C197.472 102.18 196.928 102.453 196.566 102.881C196.202 103.297 196.074 103.832 196.181 104.484ZM196.768 109.933C196.884 110.638 197.214 111.162 197.756 111.506C198.31 111.847 198.992 111.951 199.802 111.818C200.613 111.685 201.22 111.369 201.624 110.87C202.027 110.361 202.171 109.759 202.057 109.064C201.933 108.306 201.597 107.777 201.051 107.478C200.503 107.168 199.834 107.078 199.044 107.208C198.266 107.336 197.661 107.635 197.23 108.106C196.798 108.566 196.644 109.175 196.768 109.933Z" fill="white"/>
</g>
</g>
<defs>
<filter id="filter0_d_1_158" x="-2" y="0" width="363.105" height="258.382" filterUnits="userSpaceOnUse" color-interpolation-filters="sRGB">
<feFlood flood-opacity="0" result="BackgroundImageFix"/>
<feColorMatrix in="SourceAlpha" type="matrix" values="0 0 0 0 0 0 0 0 0 0 0 0 0 0 0 0 0 0 127 0" result="hardAlpha"/>
<feOffset dy="4"/>
<feGaussianBlur stdDeviation="2"/>
<feComposite in2="hardAlpha" operator="out"/>
<feColorMatrix type="matrix" values="0 0 0 0 0.0588235 0 0 0 0 0.0156863 0 0 0 0 0.556863 0 0 0 0.2 0"/>
<feBlend mode="normal" in2="BackgroundImageFix" result="effect1_dropShadow_1_158"/>
<feBlend mode="normal" in="SourceGraphic" in2="effect1_dropShadow_1_158" result="shape"/>
</filter>
<linearGradient id="paint0_linear_1_158" x1="19" y1="71.5291" x2="230.5" y2="253.029" gradientUnits="userSpaceOnUse">
<stop stop-color="#1709BF"/>
<stop offset="0.571147" stop-color="#080060"/>
<stop offset="0.973623" stop-color="#323232"/>
</linearGradient>
<clipPath id="clip0_1_158">
<rect x="2" y="53.0291" width="327" height="200" rx="16" transform="rotate(-9.33279 2 53.0291)" fill="white"/>
</clipPath>
</defs>
</svg>
